<svg width="44" height="44" viewBox="0 0 44 44" fill="none" xmlns="http://www.w3.org/2000/svg">
<path fill-rule="evenodd" clip-rule="evenodd" d="M19.0826 1.4668H35.044C36.7008 1.4668 38.044 2.80994 38.044 4.4668V39.5335C38.044 41.1903 36.7008 42.5335 35.044 42.5335H8.95557C7.29871 42.5335 5.95557 41.1903 5.95557 39.5335L5.95557 14.6668L19.0826 1.4668Z" stroke="white" stroke-linecap="round"/>
<path d="M5.95557 14.6668H17.0826C18.1872 14.6668 19.0826 13.7714 19.0826 12.6668V1.4668" stroke="white" stroke-linecap="round"/>
<path d="M22.0442 34.375C22.0442 34.6511 21.8203 34.875 21.5442 34.875C21.268 34.875 21.0442 34.6511 21.0442 34.375H22.0442ZM21.0442 19.7469C21.0442 19.4707 21.268 19.2469 21.5442 19.2469C21.8203 19.2469 22.0442 19.4707 22.0442 19.7469H21.0442ZM21.0442 34.375V19.7469H22.0442V34.375H21.0442Z" fill="white"/>
<path d="M28.3811 28.4167L21.5441 34.375L15.6187 28.4167" stroke="white" stroke-linecap="round" stroke-linejoin="round"/>
</svg>
