<svg width="16" height="16" viewBox="0 0 16 16" fill="none" xmlns="http://www.w3.org/2000/svg">
<path fill-rule="evenodd" clip-rule="evenodd" d="M6.9333 0.533325H10.8666C12.5235 0.533325 13.8666 1.87647 13.8666 3.53333V12.4667C13.8666 14.1235 12.5235 15.4667 10.8666 15.4667H5.1333C3.47645 15.4667 2.1333 14.1235 2.1333 12.4667L2.1333 5.33333L6.9333 0.533325Z" stroke="black" stroke-linecap="round"/>
<path d="M2.1333 5.33332H4.9333C6.03787 5.33332 6.9333 4.43789 6.9333 3.33332V0.533325" stroke="black" stroke-linecap="round"/>
<path d="M8.3335 12.5C8.3335 12.7761 8.10964 13 7.8335 13C7.55735 13 7.3335 12.7761 7.3335 12.5H8.3335ZM7.3335 7.18068C7.3335 6.90454 7.55735 6.68068 7.8335 6.68068C8.10964 6.68068 8.3335 6.90454 8.3335 7.18068H7.3335ZM7.3335 12.5L7.3335 7.18068H8.3335L8.3335 12.5H7.3335Z" fill="black"/>
<path d="M10.3335 10.3333L7.8335 12.5L5.66683 10.3333" stroke="black" stroke-linecap="round" stroke-linejoin="round"/>
</svg>
