<svg width="24" height="24" viewBox="0 0 24 24" fill="none" xmlns="http://www.w3.org/2000/svg">
<path d="M0.799805 3.19995L1.97456 3.19995C3.38917 3.19995 4.61156 4.18815 4.90796 5.57136L6.12226 11.2381C6.51746 13.0824 8.14732 14.4 10.0335 14.4H17.436C19.1966 14.4 20.7501 13.2489 21.2627 11.5646L23.1998 5.19995" stroke="#8A8C9B" stroke-linecap="round"/>
<path fill-rule="evenodd" clip-rule="evenodd" d="M9.6 20.8C10.4837 20.8 11.2 20.0836 11.2 19.2C11.2 18.3163 10.4837 17.6 9.6 17.6C8.71634 17.6 8 18.3163 8 19.2C8 20.0836 8.71634 20.8 9.6 20.8Z" stroke="#8A8C9B" stroke-linecap="round"/>
<path fill-rule="evenodd" clip-rule="evenodd" d="M17.6 20.8C18.4837 20.8 19.2 20.0836 19.2 19.2C19.2 18.3163 18.4837 17.6 17.6 17.6C16.7163 17.6 16 18.3163 16 19.2C16 20.0836 16.7163 20.8 17.6 20.8Z" stroke="#8A8C9B" stroke-linecap="round"/>
<path d="M11.6 4.79993L15.6 8.79993" stroke="#8A8C9B" stroke-linecap="round"/>
<path d="M15.6 4.79992L11.6 8.79992" stroke="#8A8C9B" stroke-linecap="round"/>
</svg>
