<svg width="20" height="24" viewBox="0 0 20 24" fill="none" xmlns="http://www.w3.org/2000/svg">
<path fill-rule="evenodd" clip-rule="evenodd" d="M2.75227 22.5386C2.88417 22.4784 3.03573 22.4784 3.16763 22.5386L4.51227 23.1526C4.64417 23.2129 4.79573 23.2129 4.92763 23.1526L6.27227 22.5386C6.40417 22.4784 6.55573 22.4784 6.68763 22.5386L8.03227 23.1526C8.16417 23.2129 8.31573 23.2129 8.44763 23.1526L9.79227 22.5386C9.92417 22.4784 10.0757 22.4784 10.2076 22.5386L11.5523 23.1526C11.6842 23.2129 11.8357 23.2129 11.9676 23.1526L13.3123 22.5386C13.4442 22.4784 13.5957 22.4784 13.7276 22.5386L15.0723 23.1526C15.2042 23.2129 15.3557 23.2129 15.4876 23.1526L16.8323 22.5386C16.9642 22.4784 17.1157 22.4784 17.2476 22.5386L18.4461 23.0859C18.6117 23.1615 18.8 23.0405 18.8 22.8585V1.14158C18.8 0.95957 18.6117 0.838565 18.4461 0.914164L17.2478 1.46134C17.1158 1.52161 16.9641 1.52156 16.8322 1.46121L15.4904 0.847551C15.3585 0.787241 15.2069 0.78715 15.075 0.847301L13.7275 1.46161C13.5957 1.52172 13.4442 1.52167 13.3124 1.46149L11.9676 0.847426C11.8357 0.787196 11.6842 0.787196 11.5523 0.847426L10.2076 1.46141C10.0757 1.52164 9.92417 1.52164 9.79227 1.46141L8.44763 0.847426C8.31573 0.787196 8.16417 0.787196 8.03227 0.847426L6.68763 1.46141C6.55573 1.52164 6.40417 1.52164 6.27227 1.46141L4.92763 0.847426C4.79573 0.787196 4.64417 0.787196 4.51227 0.847426L3.16763 1.46141C3.03573 1.52164 2.88417 1.52164 2.75227 1.46141L1.55379 0.914165C1.38823 0.838565 1.19995 0.95957 1.19995 1.14158V22.8585C1.19995 23.0405 1.38823 23.1615 1.55379 23.0859L2.75227 22.5386Z" stroke="#8A8C9B" stroke-linecap="round"/>
<path d="M6.80005 8.80002H13.2" stroke="#8A8C9B" stroke-linecap="round"/>
<path d="M6.80005 12H13.2" stroke="#8A8C9B" stroke-linecap="round"/>
<path d="M6.80005 15H13.2" stroke="#8A8C9B" stroke-linecap="round"/>
</svg>
