<svg width="24" height="24" viewBox="0 0 24 24" fill="none" xmlns="http://www.w3.org/2000/svg">
<rect x="1.59961" y="4" width="20.8" height="18.4" rx="3" stroke="black" stroke-linecap="round"/>
<path d="M1.59961 9.60001H22.3996" stroke="black" stroke-linecap="round"/>
<path d="M6.4 1.60004V6.40004" stroke="black" stroke-linecap="round"/>
<path d="M17.5992 1.60004V6.40004" stroke="black" stroke-linecap="round"/>
<path fill-rule="evenodd" clip-rule="evenodd" d="M5.9998 15.2C6.66255 15.2 7.1998 14.6628 7.1998 14C7.1998 13.3373 6.66255 12.8 5.9998 12.8C5.33706 12.8 4.7998 13.3373 4.7998 14C4.7998 14.6628 5.33706 15.2 5.9998 15.2ZM7.1998 18.0001C7.1998 18.6628 6.66255 19.2001 5.9998 19.2001C5.33706 19.2001 4.7998 18.6628 4.7998 18.0001C4.7998 17.3373 5.33706 16.8001 5.9998 16.8001C6.66255 16.8001 7.1998 17.3373 7.1998 18.0001ZM11.1998 18.0001C11.1998 18.6628 10.6625 19.2001 9.9998 19.2001C9.33706 19.2001 8.7998 18.6628 8.7998 18.0001C8.7998 17.3373 9.33706 16.8001 9.9998 16.8001C10.6625 16.8001 11.1998 17.3373 11.1998 18.0001ZM13.9998 19.2001C14.6625 19.2001 15.1998 18.6628 15.1998 18.0001C15.1998 17.3373 14.6625 16.8001 13.9998 16.8001C13.3371 16.8001 12.7998 17.3373 12.7998 18.0001C12.7998 18.6628 13.3371 19.2001 13.9998 19.2001ZM19.1998 18.0001C19.1998 18.6628 18.6625 19.2001 17.9998 19.2001C17.3371 19.2001 16.7998 18.6628 16.7998 18.0001C16.7998 17.3373 17.3371 16.8001 17.9998 16.8001C18.6625 16.8001 19.1998 17.3373 19.1998 18.0001ZM11.1998 14.0001C11.1998 14.6628 10.6625 15.2001 9.9998 15.2001C9.33706 15.2001 8.7998 14.6628 8.7998 14.0001C8.7998 13.3373 9.33706 12.8001 9.9998 12.8001C10.6625 12.8001 11.1998 13.3373 11.1998 14.0001ZM13.9998 15.2001C14.6625 15.2001 15.1998 14.6628 15.1998 14.0001C15.1998 13.3373 14.6625 12.8001 13.9998 12.8001C13.3371 12.8001 12.7998 13.3373 12.7998 14.0001C12.7998 14.6628 13.3371 15.2001 13.9998 15.2001ZM19.1998 14.0001C19.1998 14.6628 18.6625 15.2001 17.9998 15.2001C17.3371 15.2001 16.7998 14.6628 16.7998 14.0001C16.7998 13.3373 17.3371 12.8001 17.9998 12.8001C18.6625 12.8001 19.1998 13.3373 19.1998 14.0001Z" fill="black"/>
</svg>
