<svg width="24" height="24" viewBox="0 0 24 24" fill="none" xmlns="http://www.w3.org/2000/svg">
<path d="M0.800049 3.19995L1.9748 3.19995C3.38941 3.19995 4.61181 4.18815 4.90821 5.57136L6.1225 11.2381C6.51771 13.0824 8.14756 14.4 10.0337 14.4H17.4363C19.1968 14.4 20.7504 13.2489 21.263 11.5646L23.2 5.19995" stroke="#8A8C9B" stroke-linecap="round"/>
<path fill-rule="evenodd" clip-rule="evenodd" d="M9.6 20.8001C10.4837 20.8001 11.2 20.0838 11.2 19.2001C11.2 18.3164 10.4837 17.6001 9.6 17.6001C8.71634 17.6001 8 18.3164 8 19.2001C8 20.0838 8.71634 20.8001 9.6 20.8001Z" stroke="#8A8C9B" stroke-linecap="round"/>
<path fill-rule="evenodd" clip-rule="evenodd" d="M17.6 20.8001C18.4837 20.8001 19.2 20.0838 19.2 19.2001C19.2 18.3164 18.4837 17.6001 17.6 17.6001C16.7163 17.6001 16 18.3164 16 19.2001C16 20.0838 16.7163 20.8001 17.6 20.8001Z" stroke="#8A8C9B" stroke-linecap="round"/>
<path d="M13.6002 10V3.2" stroke="#8A8C9B" stroke-linecap="round"/>
<path d="M16.8001 7.6L13.6001 10L10.4001 7.6" stroke="#8A8C9B" stroke-linecap="round"/>
</svg>
