<svg width="22" height="22" viewBox="0 0 22 22" fill="none" xmlns="http://www.w3.org/2000/svg">
<path d="M0.585205 6.52856C0.585205 5.97628 1.03292 5.52856 1.58521 5.52856H20.1896C20.7418 5.52856 21.1895 5.97628 21.1895 6.52856V10.6397C21.1895 11.192 20.7418 11.6397 20.1895 11.6397H1.5852C1.03292 11.6397 0.585205 11.192 0.585205 10.6397V6.52856Z" stroke="black" stroke-linecap="round" stroke-linejoin="round"/>
<path d="M18.7224 11.6396V20.2237C18.7224 20.8987 18.1752 21.4459 17.5002 21.4459H4.28826C3.61325 21.4459 3.06604 20.8987 3.06604 20.2237V11.6396" stroke="black" stroke-linecap="round" stroke-linejoin="round"/>
<path d="M11.0001 5.50037V21.0004" stroke="black" stroke-linecap="round" stroke-linejoin="round"/>
<path d="M10.3942 5.52854C10.3942 5.52854 10.4942 0.618164 5.67062 0.618164C4.55418 0.618164 3.06604 1.30104 3.29961 3.16338C3.53318 5.02572 5.98553 5.52854 5.98553 5.52854" stroke="black" stroke-linecap="round" stroke-linejoin="round"/>
<path d="M11.3963 5.52854C11.3963 5.52854 11.2963 0.618164 16.1199 0.618164C17.2363 0.618164 18.7245 1.30104 18.4909 3.16338C18.2573 5.02572 15.805 5.52854 15.805 5.52854" stroke="black" stroke-linecap="round" stroke-linejoin="round"/>
</svg>
