<svg width="60" height="60" viewBox="0 0 60 60" fill="none" xmlns="http://www.w3.org/2000/svg">
<path fill-rule="evenodd" clip-rule="evenodd" d="M30.8275 52.8747C30.3017 52.6357 29.6983 52.6357 29.1725 52.8747L20.468 56.8308C19.4139 57.3099 18.1745 56.7965 17.7679 55.7124L14.2507 46.3345C14.1493 46.0641 13.9359 45.8507 13.6655 45.7493L4.28764 42.2321C3.20351 41.8255 2.69012 40.5861 3.1692 39.532L7.31334 30.4138C7.43283 30.1509 7.43283 29.8491 7.31334 29.5862L3.1692 20.468C2.69012 19.4139 3.20351 18.1745 4.28764 17.7679L13.6655 14.2507C13.9359 14.1493 14.1493 13.9359 14.2507 13.6655L17.7679 4.28764C18.1745 3.20351 19.4139 2.69012 20.468 3.1692L29.5862 7.31334C29.8491 7.43283 30.1509 7.43283 30.4138 7.31334L39.532 3.1692C40.5861 2.69012 41.8255 3.20351 42.2321 4.28764L45.7493 13.6655C45.8507 13.9359 46.0641 14.1493 46.3345 14.2507L55.7124 17.7679C56.7965 18.1745 57.3099 19.4139 56.8308 20.468L52.6867 29.5862C52.5672 29.8491 52.5672 30.1509 52.6867 30.4138L56.8308 39.532C57.3099 40.5861 56.7965 41.8255 55.7124 42.2321L46.3345 45.7493C46.0641 45.8507 45.8507 46.0641 45.7493 46.3345L42.2321 55.7124C41.8255 56.7965 40.5861 57.3099 39.532 56.8308L30.8275 52.8747Z" stroke="#A0A0A0" stroke-width="2" stroke-linecap="round"/>
<ellipse cx="23.75" cy="23.75" rx="3.75" ry="3.75" stroke="#A0A0A0" stroke-width="2"/>
<circle cx="36.25" cy="36.25" r="3.75" stroke="#A0A0A0" stroke-width="2"/>
<path d="M22.5 37.5L37.5 22.5" stroke="#A0A0A0" stroke-width="2" stroke-linecap="round" stroke-linejoin="round"/>
</svg>
