<svg width="16" height="11" viewBox="0 0 16 11" fill="none" xmlns="http://www.w3.org/2000/svg">
<path fill-rule="evenodd" clip-rule="evenodd" d="M6.22861 10.7744C6.31717 10.8451 6.42766 10.8836 6.5415 10.8832C6.6851 10.8854 6.82216 10.8239 6.91496 10.7155L14.9897 1.73169C15.1335 1.60393 15.1909 1.40619 15.1374 1.22249C15.084 1.03879 14.9292 0.901396 14.7387 0.868699C14.5483 0.836002 14.3557 0.913742 14.2428 1.06888L6.48094 9.69834L1.80767 6.00499C1.66811 5.88042 1.4701 5.84289 1.29385 5.90761C1.1176 5.97233 0.992347 6.12857 0.968821 6.31304C0.945295 6.49751 1.0274 6.67961 1.18188 6.78559L6.22861 10.7744Z" fill="black"/>
</svg>
