<svg width="12" height="12" viewBox="0 0 12 12" fill="none" xmlns="http://www.w3.org/2000/svg">
<path d="M0.747033 1.45402C0.55177 1.25876 0.55177 0.942173 0.747033 0.74691C0.942295 0.551648 1.25888 0.551648 1.45414 0.74691L0.747033 1.45402ZM11.3536 10.6464C11.5489 10.8417 11.5489 11.1582 11.3536 11.3535C11.1584 11.5488 10.8418 11.5488 10.6465 11.3535L11.3536 10.6464ZM1.45414 0.74691L11.3536 10.6464L10.6465 11.3535L0.747033 1.45402L1.45414 0.74691Z" fill="black"/>
<path d="M1.45414 11.3536C1.25888 11.5488 0.942295 11.5488 0.747033 11.3536C0.55177 11.1583 0.55177 10.8417 0.747033 10.6464L1.45414 11.3536ZM10.6465 0.746952C10.8418 0.55169 11.1584 0.55169 11.3536 0.746952C11.5489 0.942214 11.5489 1.2588 11.3536 1.45406L10.6465 0.746952ZM0.747033 10.6464L10.6465 0.746952L11.3536 1.45406L1.45414 11.3536L0.747033 10.6464Z" fill="black"/>
</svg>
