<svg width="44" height="48" viewBox="0 0 44 48" fill="none" xmlns="http://www.w3.org/2000/svg">
<path fill-rule="evenodd" clip-rule="evenodd" d="M0.00273696 18.8066C0.661834 12.532 2.39421 0.00689288 26.4668 0C40.7773 0.167261 45.0989 14.8798 43.7732 25.9312C42.4474 36.9826 36.3416 48.246 24.3142 47.9959C9.68919 47.9461 -0.188796 28.5337 0.00273696 18.8066Z" fill="#EFFBFF"/>
<path d="M24.4286 20.8056C24.4286 20.422 24.1088 20.1111 23.7143 20.1111C23.3198 20.1111 23 20.422 23 20.8056V22.1944C23 22.578 23.3198 22.8889 23.7143 22.8889C24.1088 22.8889 24.4286 22.578 24.4286 22.1944V20.8056Z" fill="#20C3FF"/>
<path fill-rule="evenodd" clip-rule="evenodd" d="M13.9868 10.457C13.3984 10.643 13 11.1762 13 11.7778V31.2222C13 31.82 13.3935 32.3508 13.9768 32.5398L18.2625 33.9287C18.4082 33.9759 18.5607 34 18.7143 34H27.2857C27.4393 34 27.5918 33.9759 27.7375 33.9287L32.0232 32.5398C32.6065 32.3508 33 31.82 33 31.2222V11.7778C33 11.18 32.6065 10.6492 32.0232 10.4602L27.7375 9.07127C27.5899 9.02347 27.4354 8.99939 27.2799 9.00001L26.6334 9.00258C26.613 9.00087 26.5923 9 26.5714 9C26.5485 9 26.5259 9.00105 26.5036 9.00309L18.7085 9.03402C18.5604 9.0346 18.4133 9.05757 18.2725 9.10208L13.9868 10.457ZM20.1429 10.4172L25.8571 10.3946V32.6111H20.1429V10.4172ZM31.5714 31.2222L27.2857 32.6111V10.3889L31.5714 11.7778V31.2222ZM14.4286 31.2222L18.7143 32.6111V10.4229L14.4286 11.7778V31.2222Z" fill="#20C3FF"/>
</svg>
