<svg width="44" height="48" viewBox="0 0 44 48" fill="none" xmlns="http://www.w3.org/2000/svg">
<path fill-rule="evenodd" clip-rule="evenodd" d="M0.00273696 18.8066C0.661834 12.532 2.39421 0.00689288 26.4668 0C40.7773 0.167261 45.0989 14.8798 43.7732 25.9312C42.4474 36.9826 36.3416 48.246 24.3142 47.9959C9.68919 47.9461 -0.188796 28.5337 0.00273696 18.8066Z" fill="#F2F4FF"/>
<path d="M25.6562 21.0825C26.0532 21.0825 26.375 21.4049 26.375 21.8027V24.7657C26.375 25.1634 26.0532 25.4859 25.6562 25.4859C25.2593 25.4859 24.9375 25.1634 24.9375 24.7657V21.8027C24.9375 21.4049 25.2593 21.0825 25.6562 21.0825Z" fill="#4D65FF"/>
<path d="M22.0625 21.8027C22.0625 21.4049 21.7407 21.0825 21.3438 21.0825C20.9468 21.0825 20.625 21.4049 20.625 21.8027V24.7657C20.625 25.1634 20.9468 25.4859 21.3438 25.4859C21.7407 25.4859 22.0625 25.1634 22.0625 24.7657V21.8027Z" fill="#4D65FF"/>
<path d="M16.3125 14.6009C16.3125 14.2031 16.6343 13.8807 17.0312 13.8807H18.5547C18.9517 13.8807 19.2735 14.2031 19.2735 14.6009C19.2735 14.9986 18.9517 15.3211 18.5547 15.3211H17.0312C16.6343 15.3211 16.3125 14.9986 16.3125 14.6009Z" fill="#4D65FF"/>
<path d="M28.5312 13.8807C28.1343 13.8807 27.8125 14.2031 27.8125 14.6009C27.8125 14.9986 28.1343 15.3211 28.5312 15.3211H30.0547C30.4517 15.3211 30.7735 14.9986 30.7735 14.6009C30.7735 14.2031 30.4517 13.8807 30.0547 13.8807H28.5312Z" fill="#4D65FF"/>
<path fill-rule="evenodd" clip-rule="evenodd" d="M32.125 11H14.875C13.2872 11 12 12.2897 12 13.8807V29.7246C12 31.3156 13.2872 32.6054 14.875 32.6054L14.875 33.2798C14.875 33.6776 15.1968 34 15.5938 34C15.9907 34 16.3125 33.6776 16.3125 33.2798V32.6054H30.6875V33.2798C30.6875 33.6776 31.0093 34 31.4062 34C31.8032 34 32.125 33.6776 32.125 33.2798V32.6054C33.7128 32.6054 35 31.3156 35 29.7246V13.8807C35 12.2897 33.7128 11 32.125 11ZM32.125 31.165C32.9189 31.165 33.5625 30.5201 33.5625 29.7246V18.302H13.4375V29.7246C13.4375 30.5201 14.0811 31.165 14.875 31.165H32.125ZM13.4375 13.8807C13.4375 13.0852 14.0811 12.4404 14.875 12.4404H32.125C32.9189 12.4404 33.5625 13.0852 33.5625 13.8807V16.8616H13.4375V13.8807Z" fill="#4D65FF"/>
</svg>
