<svg width="44" height="48" viewBox="0 0 44 48" fill="none" xmlns="http://www.w3.org/2000/svg">
<path fill-rule="evenodd" clip-rule="evenodd" d="M0.00273696 18.8066C0.661834 12.532 2.39421 0.00689288 26.4668 0C40.7773 0.167261 45.0989 14.8798 43.7732 25.9312C42.4474 36.9826 36.3416 48.246 24.3142 47.9959C9.68919 47.9461 -0.188796 28.5337 0.00273696 18.8066Z" fill="#FFF8ED"/>
<path fill-rule="evenodd" clip-rule="evenodd" d="M12.7169 13C12.4879 13 12.2727 13.1098 12.1377 13.2955C12.0028 13.4812 11.9643 13.7204 12.0342 13.9393L12.7169 13.7196C12.0342 13.9393 12.0348 13.941 12.0348 13.941L12.0356 13.9434L12.0378 13.9503L12.045 13.9718C12.051 13.9895 12.0595 14.0141 12.0705 14.045C12.0926 14.1068 12.1251 14.194 12.1689 14.303C12.2565 14.5208 12.3896 14.8266 12.5761 15.1909C12.9484 15.9183 13.5373 16.8869 14.4072 17.8569C15.7508 19.3552 17.7583 20.8468 20.6336 21.4599C20.6234 21.5084 20.6155 21.5578 20.6102 21.6081L19.2541 34.4087C19.2111 34.8146 19.3418 35.2197 19.6137 35.5232C19.8856 35.8267 20.2731 36 20.6798 36H26.3111C26.7187 36 27.107 35.8259 27.3789 35.5212C27.6509 35.2165 27.7808 34.8101 27.7363 34.4034L26.3327 21.6029C26.3278 21.5577 26.3208 21.5132 26.3118 21.4695C29.212 20.8624 31.2353 19.3632 32.5877 17.8573C33.4587 16.8874 34.0488 15.9189 34.4221 15.1916C34.609 14.8273 34.7425 14.5216 34.8304 14.3037C34.8743 14.1947 34.9069 14.1075 34.9291 14.0458C34.9402 14.0149 34.9487 13.9903 34.9547 13.9726L34.9619 13.9511L34.9642 13.9442L34.9655 13.9401C34.9655 13.9401 34.9655 13.9401 34.2831 13.7196L34.9655 13.9401C35.0357 13.7212 34.9974 13.4817 34.8625 13.2958C34.7276 13.1099 34.5123 13 34.2831 13H12.7169ZM13.8513 14.5332C13.835 14.5013 13.8192 14.4699 13.8038 14.4391H33.1948C33.1795 14.4697 33.1637 14.5009 33.1475 14.5325C32.8172 15.1762 32.2934 16.0356 31.5227 16.8937C29.9929 18.5972 27.4801 20.3119 23.4952 20.3119C19.5104 20.3119 17.0001 18.5973 15.4728 16.8941C14.7034 16.0361 14.1808 15.1768 13.8513 14.5332ZM24.9076 21.7603H22.0359L20.6798 34.5609H26.3111L24.9076 21.7603Z" fill="#FFAA18"/>
</svg>
