<svg width="44" height="48" viewBox="0 0 44 48" fill="none" xmlns="http://www.w3.org/2000/svg">
<path fill-rule="evenodd" clip-rule="evenodd" d="M0.00273696 18.8066C0.661834 12.532 2.39421 0.00689288 26.4668 0C40.7773 0.167261 45.0989 14.8798 43.7732 25.9312C42.4474 36.9826 36.3416 48.246 24.3142 47.9959C9.68919 47.9461 -0.188796 28.5337 0.00273696 18.8066Z" fill="#F8F3FF"/>
<path fill-rule="evenodd" clip-rule="evenodd" d="M19.0018 15.9471H27.7677C29.2364 15.9471 30.4628 17.0425 30.5958 18.4731L31.7575 30.9712C31.9087 32.5977 30.5993 34 28.9294 34H17.84C16.1701 34 14.8607 32.5977 15.0119 30.9712L16.1736 18.4731C16.3066 17.0425 17.533 15.9471 19.0018 15.9471ZM19.0018 17.3358C18.2674 17.3358 17.6542 17.8835 17.5877 18.5988L16.426 31.0969C16.3504 31.9101 17.0051 32.6113 17.84 32.6113H28.9294C29.7643 32.6113 30.4191 31.9101 30.3435 31.0969L29.1817 18.5988C29.1152 17.8835 28.502 17.3358 27.7677 17.3358H19.0018Z" fill="#9541FF"/>
<path fill-rule="evenodd" clip-rule="evenodd" d="M21.9648 13.1698H24.8046C26.373 13.1698 27.6444 14.4132 27.6444 15.9471H26.2245C26.2245 15.1802 25.5888 14.5585 24.8046 14.5585H21.9648C21.1806 14.5585 20.5449 15.1802 20.5449 15.9471H19.125C19.125 14.4132 20.3964 13.1698 21.9648 13.1698ZM20.5449 15.9471H26.2245V17.3358H20.5449V15.9471Z" fill="#9541FF"/>
<path fill-rule="evenodd" clip-rule="evenodd" d="M17.0631 12.4754L16.7572 11.8489C16.4033 12.0141 16.2535 12.4286 16.4224 12.7746C16.5914 13.1206 17.015 13.2672 17.3688 13.1021M17.3688 13.1021L17.3706 13.1013L17.3809 13.0966L17.4268 13.0759C17.4686 13.0572 17.5326 13.0291 17.618 12.9928C17.7888 12.9202 18.045 12.8151 18.3795 12.6883C19.0485 12.4345 20.0299 12.0942 21.2671 11.7532C23.743 11.0708 27.2338 10.3887 31.29 10.3887C31.6821 10.3887 32 10.0778 32 9.69434C32 9.31087 31.6821 9 31.29 9C27.0742 9 23.4515 9.70841 20.882 10.4166C19.5964 10.7709 18.5721 11.1258 17.8661 11.3935C17.5131 11.5274 17.2394 11.6396 17.0522 11.7191C16.9587 11.7589 16.8867 11.7905 16.8372 11.8125L16.78 11.8384L16.7642 11.8456L16.7596 11.8477L16.7572 11.8489C16.7572 11.8489 16.7572 11.8489 17.0631 12.4754" fill="#9541FF"/>
<path fill-rule="evenodd" clip-rule="evenodd" d="M30.801 20.1132L31.4969 29.834H26.2245C24.6561 29.834 23.3847 28.5905 23.3847 27.0566V22.8905C23.3847 21.3567 24.6561 20.1132 26.2245 20.1132H30.801ZM26.2245 28.4453C25.4403 28.4453 24.8046 27.8235 24.8046 27.0566V22.8905C24.8046 22.1236 25.4403 21.5019 26.2245 21.5019H29.477L29.9741 28.4453H26.2245Z" fill="#9541FF"/>
<path fill-rule="evenodd" clip-rule="evenodd" d="M20.5437 13.8621V11.0849H21.9636V13.8621H20.5437Z" fill="#9541FF"/>
<path fill-rule="evenodd" clip-rule="evenodd" d="M24.8034 13.8621V10.3829H26.2233V13.8621H24.8034Z" fill="#9541FF"/>
</svg>
