<svg width="44" height="48" viewBox="0 0 44 48" fill="none" xmlns="http://www.w3.org/2000/svg">
<path fill-rule="evenodd" clip-rule="evenodd" d="M0.00273696 18.8066C0.661834 12.532 2.39421 0.00689288 26.4668 0C40.7773 0.167261 45.0989 14.8798 43.7732 25.9312C42.4474 36.9826 36.3416 48.246 24.3142 47.9959C9.68919 47.9461 -0.188796 28.5337 0.00273696 18.8066Z" fill="#FFF3F3"/>
<path fill-rule="evenodd" clip-rule="evenodd" d="M13.4116 34C12.632 34 12 33.3763 12 32.6069V31.339C12 31.066 12.0812 30.7991 12.2337 30.5713L14.7812 26.764V13.3172C14.7812 13.2333 14.7889 13.1496 14.8042 13.067L16.1929 13.3172V27.1825L13.4116 31.339V32.6069H23.4263V31.339L20.7414 27.1825L20.5203 14.4688L28.9232 10.3931H27.6152C27.6152 10.3931 26.6065 10.4913 25.2322 10.6311C22.6567 10.8932 18.7967 11.3017 17.8823 11.485C16.4798 11.7661 16.1929 13.3172 16.1929 13.3172C14.8042 13.067 14.8042 13.067 14.8042 13.067L14.8046 13.0647L14.8051 13.0623L14.8061 13.0569L14.8085 13.0443L14.8152 13.0121C14.8204 12.9875 14.8274 12.9569 14.8362 12.9209C14.8539 12.8491 14.8797 12.7546 14.9157 12.644C14.9868 12.4259 15.1034 12.1279 15.2886 11.8108C15.6574 11.1795 16.3689 10.3668 17.6013 10.1198C18.3861 9.9625 20.9103 9.68169 23.1248 9.44842C24.257 9.32916 25.3447 9.21876 26.1491 9.1382C26.5514 9.09791 26.883 9.06507 27.1142 9.04228L27.4765 9.00674C27.5225 9.00226 27.5689 9 27.6152 9H28.9232C29.5797 9 30.1495 9.44662 30.2982 10.0777C30.4468 10.7087 30.1351 11.3576 29.5459 11.6433L21.9471 15.329L22.146 26.7653L24.6166 30.5901C24.7611 30.8139 24.8379 31.0737 24.8379 31.339V32.6069C24.8379 33.3763 24.2059 34 23.4263 34H13.4116Z" fill="#FF4747"/>
<path fill-rule="evenodd" clip-rule="evenodd" d="M15.4827 16.7144C15.4827 16.3297 15.7987 16.0178 16.1885 16.0178H20.6028C20.9926 16.0178 21.3086 16.3297 21.3086 16.7144C21.3086 17.0991 20.9926 17.4109 20.6028 17.4109H16.1885C15.7987 17.4109 15.4827 17.0991 15.4827 16.7144Z" fill="#FF4747"/>
<path fill-rule="evenodd" clip-rule="evenodd" d="M20.6981 19.4477C20.6981 19.063 21.0141 18.7511 21.4039 18.7511H32.8941C33.1018 18.7511 33.2989 18.8414 33.433 18.9978L35.833 21.7972C35.9657 21.952 36.0234 22.156 35.9913 22.3562C35.9591 22.5563 35.8403 22.7328 35.6656 22.8394L33.5196 24.1502C33.2854 24.2933 32.9883 24.2888 32.7586 24.1388L31.0277 23.0083L21.6075 25.8081C21.2342 25.919 20.8405 25.7104 20.7281 25.342C20.6157 24.9737 20.8271 24.5851 21.2004 24.4742L30.9376 21.5802C31.1384 21.5205 31.3558 21.552 31.5307 21.6663L33.1609 22.731L34.2264 22.0801L32.5667 20.1442H21.4039C21.0141 20.1442 20.6981 19.8324 20.6981 19.4477Z" fill="#FF4747"/>
<path fill-rule="evenodd" clip-rule="evenodd" d="M14.8569 26.999C14.8569 26.6143 15.1729 26.3024 15.5627 26.3024H21.0026C21.3924 26.3024 21.7084 26.6143 21.7084 26.999C21.7084 27.3837 21.3924 27.6955 21.0026 27.6955H15.5627C15.1729 27.6955 14.8569 27.3837 14.8569 26.999Z" fill="#FF4747"/>
</svg>
