<svg width="44" height="48" viewBox="0 0 44 48" fill="none" xmlns="http://www.w3.org/2000/svg">
<path fill-rule="evenodd" clip-rule="evenodd" d="M0.00273696 18.8066C0.661834 12.532 2.39421 0.00689288 26.4668 0C40.7773 0.167261 45.0989 14.8798 43.7732 25.9312C42.4474 36.9826 36.3416 48.246 24.3142 47.9959C9.68919 47.9461 -0.188796 28.5337 0.00273696 18.8066Z" fill="#FFF5FF"/>
<path fill-rule="evenodd" clip-rule="evenodd" d="M20.6235 13.8337V8H26.3734V13.8356C29.1236 14.4318 30.8607 15.8609 31.9325 17.3221C32.6244 18.2654 33.0279 19.2054 33.259 19.9086C33.3748 20.2611 33.4482 20.557 33.4932 20.7681C33.5157 20.8738 33.5311 20.9585 33.5411 21.0188C33.5461 21.0489 33.5498 21.073 33.5524 21.0906L33.5554 21.112L33.5563 21.119L33.5567 21.1215C33.5567 21.1219 33.5569 21.1234 32.8434 21.2072L33.5569 21.1234C33.5818 21.321 33.5176 21.5194 33.3806 21.6682C33.2437 21.8171 33.0471 21.9019 32.8409 21.9012L14.1536 21.8364C13.9482 21.8357 13.7529 21.7501 13.617 21.6013C13.4812 21.4525 13.4178 21.2547 13.4428 21.0578L14.1562 21.1425C13.4428 21.0578 13.4428 21.0583 13.4428 21.0578L13.4431 21.0559L13.4434 21.0534L13.4444 21.0465L13.4474 21.0251C13.45 21.0076 13.4537 20.9837 13.4587 20.9537C13.4688 20.8938 13.4842 20.8097 13.5068 20.7049C13.5518 20.4954 13.6253 20.2018 13.7413 19.8522C13.9726 19.1547 14.3765 18.2225 15.069 17.2872C16.1411 15.8392 17.8771 14.4246 20.6235 13.8337ZM22.0609 9.38788H24.9359V13.5515H23.9518C23.8034 13.5473 23.6527 13.5451 23.4998 13.5451C23.3463 13.5451 23.1949 13.5473 23.0459 13.5515H22.0609V9.38788ZM23.9301 14.9394H23.0675C19.3551 15.0512 17.3452 16.5995 16.2384 18.0943C15.6531 18.8848 15.3083 19.6785 15.1103 20.2754C15.0901 20.3364 15.0714 20.3952 15.0542 20.4516L31.9461 20.5102C31.9285 20.452 31.9095 20.3913 31.8888 20.3283C31.6905 19.7249 31.3452 18.9229 30.7594 18.1242C29.6513 16.6135 27.641 15.0517 23.9301 14.9394Z" fill="#FF40F4"/>
<path d="M17.375 23.3447C17.7273 23.5214 17.8644 23.9404 17.6814 24.2804L16.1776 27.0743C15.9945 27.4144 15.5606 27.5468 15.2084 27.3701C14.8561 27.1934 14.719 26.7744 14.902 26.4343L16.4058 23.6404C16.5889 23.3004 17.0228 23.1679 17.375 23.3447Z" fill="#FF40F4"/>
<path d="M22.0977 24.1437C22.2025 23.774 21.9771 23.3923 21.5943 23.2911C21.2114 23.19 20.8161 23.4076 20.7113 23.7773L19.9192 26.5711C19.8144 26.9408 20.0398 27.3225 20.4227 27.4237C20.8055 27.5249 21.2009 27.3072 21.3057 26.9376L22.0977 24.1437Z" fill="#FF40F4"/>
<path d="M14.4906 28.8915C14.8455 29.0632 14.9891 29.4801 14.8113 29.8228L13.3615 32.6167C13.1837 32.9593 12.7519 33.098 12.397 32.9263C12.0421 32.7546 11.8985 32.3377 12.0763 31.995L13.5261 29.2011C13.7039 28.8585 14.1357 28.7199 14.4906 28.8915Z" fill="#FF40F4"/>
<path d="M20.5917 29.7004C20.6995 29.3315 20.4772 28.9482 20.0951 28.8441C19.7131 28.7401 19.316 28.9547 19.2083 29.3236L18.392 32.1175C18.2842 32.4863 18.5065 32.8697 18.8886 32.9738C19.2706 33.0778 19.6677 32.8631 19.7754 32.4943L20.5917 29.7004Z" fill="#FF40F4"/>
<path d="M29.625 23.3447C29.2727 23.5214 29.1356 23.9404 29.3186 24.2804L30.8224 27.0743C31.0055 27.4144 31.4394 27.5468 31.7916 27.3701C32.1439 27.1934 32.281 26.7744 32.098 26.4343L30.5942 23.6404C30.4111 23.3004 29.9772 23.1679 29.625 23.3447Z" fill="#FF40F4"/>
<path d="M24.9023 24.1437C24.7975 23.774 25.0229 23.3923 25.4057 23.2911C25.7886 23.19 26.1839 23.4076 26.2887 23.7773L27.0808 26.5711C27.1856 26.9408 26.9602 27.3225 26.5773 27.4237C26.1945 27.5249 25.7991 27.3072 25.6943 26.9376L24.9023 24.1437Z" fill="#FF40F4"/>
<path d="M32.5094 28.8915C32.1545 29.0632 32.0109 29.4801 32.1887 29.8228L33.6385 32.6167C33.8163 32.9593 34.2481 33.098 34.603 32.9263C34.9579 32.7546 35.1015 32.3377 34.9237 31.995L33.4739 29.2011C33.2961 28.8585 32.8643 28.7199 32.5094 28.8915Z" fill="#FF40F4"/>
<path d="M26.4083 29.7004C26.3005 29.3315 26.5228 28.9482 26.9049 28.8441C27.2869 28.7401 27.684 28.9547 27.7917 29.3236L28.608 32.1175C28.7158 32.4863 28.4935 32.8697 28.1114 32.9738C27.7294 33.0778 27.3323 32.8631 27.2246 32.4943L26.4083 29.7004Z" fill="#FF40F4"/>
</svg>
