<svg width="24" height="20" viewBox="0 0 24 20" fill="none" xmlns="http://www.w3.org/2000/svg">
<path d="M0.800003 1.2L1.97475 1.2C3.38937 1.2 4.61176 2.1882 4.90816 3.57141L6.12246 9.23812C6.51766 11.0824 8.14752 12.4 10.0337 12.4H17.4362C19.1968 12.4 20.7503 11.2489 21.2629 9.56465L23.2 3.2" stroke="black" stroke-linecap="round"/>
<path fill-rule="evenodd" clip-rule="evenodd" d="M9.6 18.8C10.4837 18.8 11.2 18.0836 11.2 17.2C11.2 16.3163 10.4837 15.6 9.6 15.6C8.71634 15.6 8 16.3163 8 17.2C8 18.0836 8.71634 18.8 9.6 18.8Z" stroke="black" stroke-linecap="round"/>
<path fill-rule="evenodd" clip-rule="evenodd" d="M17.6 18.8C18.4837 18.8 19.2 18.0836 19.2 17.2C19.2 16.3163 18.4837 15.6 17.6 15.6C16.7163 15.6 16 16.3163 16 17.2C16 18.0836 16.7163 18.8 17.6 18.8Z" stroke="black" stroke-linecap="round"/>
<path fill-rule="evenodd" clip-rule="evenodd" d="M11.2 3.99999C11.2 4.66273 10.6627 5.19999 10 5.19999C9.33726 5.19999 8.80001 4.66273 8.80001 3.99999C8.80001 3.33725 9.33726 2.79999 10 2.79999C10.6627 2.79999 11.2 3.33725 11.2 3.99999ZM11.2 8C11.2 8.66274 10.6627 9.2 10 9.2C9.33726 9.2 8.8 8.66274 8.8 8C8.8 7.33726 9.33726 6.8 10 6.8C10.6627 6.8 11.2 7.33726 11.2 8ZM15.2 8C15.2 8.66274 14.6627 9.2 14 9.2C13.3373 9.2 12.8 8.66274 12.8 8C12.8 7.33726 13.3373 6.8 14 6.8C14.6627 6.8 15.2 7.33726 15.2 8ZM18 9.2C18.6627 9.2 19.2 8.66274 19.2 8C19.2 7.33726 18.6627 6.8 18 6.8C17.3373 6.8 16.8 7.33726 16.8 8C16.8 8.66274 17.3373 9.2 18 9.2ZM14 5.2C14.6627 5.2 15.2 4.66274 15.2 4C15.2 3.33726 14.6627 2.8 14 2.8C13.3373 2.8 12.8 3.33726 12.8 4C12.8 4.66274 13.3373 5.2 14 5.2ZM19.2 4C19.2 4.66274 18.6627 5.2 18 5.2C17.3373 5.2 16.8 4.66274 16.8 4C16.8 3.33726 17.3373 2.8 18 2.8C18.6627 2.8 19.2 3.33726 19.2 4Z" fill="black"/>
</svg>
