<svg width="24" height="24" viewBox="0 0 24 24" fill="none" xmlns="http://www.w3.org/2000/svg">
<path d="M5.7041 21.2185C6.30793 20.7023 7.17471 20.4783 8.19732 20.4783H9.2881L10.5444 18.7447" stroke="black" stroke-miterlimit="10" stroke-linecap="round" stroke-linejoin="round"/>
<path d="M18.7933 21.2964C18.1992 20.7315 17.3129 20.4783 16.2513 20.4783H15.1606L13.875 18.7447" stroke="black" stroke-miterlimit="10" stroke-linecap="round" stroke-linejoin="round"/>
<path d="M12.2001 18.9882C14.2064 18.9882 16.0373 16.3391 16.0373 14.0699C17.3131 13.0181 16.1931 9.15166 16.1931 9.15166C16.9528 7.1454 14.8199 4.62297 11.4794 6.6974C8.57714 6.6974 8.21679 7.79792 8.21679 9.15166C8.21679 9.15166 7.24287 11.4891 8.37261 14.0699C8.36287 16.3294 10.1938 18.9882 12.2001 18.9882Z" stroke="black" stroke-miterlimit="10" stroke-linecap="round" stroke-linejoin="round"/>
<path d="M12.2 23.4C18.3856 23.4 23.4 18.3856 23.4 12.2C23.4 6.01441 18.3856 1 12.2 1C6.01441 1 1 6.01441 1 12.2C1 18.3856 6.01441 23.4 12.2 23.4Z" stroke="black" stroke-miterlimit="10" stroke-linecap="round" stroke-linejoin="round"/>
</svg>
