<svg width="16" height="16" viewBox="0 0 16 16" fill="none" xmlns="http://www.w3.org/2000/svg">
<path fill-rule="evenodd" clip-rule="evenodd" d="M6.39998 2.35415V2.13332C6.39998 1.54421 6.87755 1.06665 7.46665 1.06665H8.53332C9.12242 1.06665 9.59998 1.54421 9.59998 2.13332V2.35415C10.0438 2.47967 10.4662 2.6561 10.8605 2.87674L11.017 2.72025C11.4335 2.30369 12.1089 2.30369 12.5255 2.72025L13.2797 3.4745C13.6963 3.89106 13.6963 4.56644 13.2797 4.98299L13.1232 5.13948C13.3439 5.5338 13.5203 5.9562 13.6458 6.39998H13.8667C14.4558 6.39998 14.9333 6.87755 14.9333 7.46665V8.53332C14.9333 9.12242 14.4558 9.59998 13.8667 9.59998H13.6458C13.5203 10.0438 13.3439 10.4662 13.1232 10.8605L13.2797 11.017C13.6963 11.4335 13.6963 12.1089 13.2797 12.5255L12.5255 13.2797C12.1089 13.6963 11.4335 13.6963 11.017 13.2797L10.8605 13.1232C10.4662 13.3439 10.0438 13.5203 9.59998 13.6458V13.8666C9.59998 14.4558 9.12242 14.9333 8.53332 14.9333H7.46665C6.87755 14.9333 6.39998 14.4558 6.39998 13.8666V13.6458C5.9562 13.5203 5.5338 13.3439 5.13948 13.1232L4.983 13.2797C4.56644 13.6963 3.89106 13.6963 3.4745 13.2797L2.72025 12.5255C2.30369 12.1089 2.30369 11.4335 2.72025 11.017L2.87674 10.8605C2.6561 10.4662 2.47967 10.0438 2.35415 9.59998H2.13332C1.54421 9.59998 1.06665 9.12242 1.06665 8.53332V7.46665C1.06665 6.87755 1.54421 6.39998 2.13332 6.39998H2.35415C2.47967 5.9562 2.6561 5.5338 2.87674 5.13948L2.72025 4.98299C2.30369 4.56644 2.30369 3.89106 2.72025 3.4745L3.4745 2.72025C3.89106 2.30369 4.56644 2.30369 4.983 2.72025L5.13948 2.87674C5.5338 2.6561 5.9562 2.47967 6.39998 2.35415ZM7.99998 10.1333C9.17819 10.1333 10.1333 9.17819 10.1333 7.99998C10.1333 6.82178 9.17819 5.86665 7.99998 5.86665C6.82178 5.86665 5.86665 6.82178 5.86665 7.99998C5.86665 9.17819 6.82178 10.1333 7.99998 10.1333Z" stroke="#8A8C9B" stroke-linecap="round"/>
</svg>
