<svg width="16" height="16" viewBox="0 0 16 16" fill="none" xmlns="http://www.w3.org/2000/svg">
<path d="M2.88 4.26C3.64215 4.26 4.26 3.64215 4.26 2.88C4.26 2.11785 3.64215 1.5 2.88 1.5C2.11785 1.5 1.5 2.11785 1.5 2.88C1.5 3.64215 2.11785 4.26 2.88 4.26Z" stroke="#8A8C9B" stroke-miterlimit="10"/>
<path d="M6.53027 2.91998H14.5303" stroke="#8A8C9B" stroke-miterlimit="10" stroke-linecap="round"/>
<path d="M2.88 9.26C3.64215 9.26 4.26 8.64215 4.26 7.88C4.26 7.11785 3.64215 6.5 2.88 6.5C2.11785 6.5 1.5 7.11785 1.5 7.88C1.5 8.64215 2.11785 9.26 2.88 9.26Z" stroke="#8A8C9B" stroke-miterlimit="10"/>
<path d="M6.53027 7.91998H14.5303" stroke="#8A8C9B" stroke-miterlimit="10" stroke-linecap="round"/>
<path d="M2.88 14.26C3.64215 14.26 4.26 13.6422 4.26 12.88C4.26 12.1178 3.64215 11.5 2.88 11.5C2.11785 11.5 1.5 12.1178 1.5 12.88C1.5 13.6422 2.11785 14.26 2.88 14.26Z" stroke="#8A8C9B" stroke-miterlimit="10"/>
<path d="M6.53027 12.92H14.5303" stroke="#8A8C9B" stroke-miterlimit="10" stroke-linecap="round"/>
</svg>
