<svg width="16" height="16" viewBox="0 0 16 16" fill="none" xmlns="http://www.w3.org/2000/svg">
<rect x="0.5" y="0.5" width="15" height="15" rx="7.5" stroke="#8A8C9B"/>
<path d="M8.5 10.2857C8.5 10.0096 8.27614 9.78571 8 9.78571C7.72386 9.78571 7.5 10.0096 7.5 10.2857H8.5ZM5.5 6.16216C5.5 6.43831 5.72386 6.66216 6 6.66216C6.27614 6.66216 6.5 6.43831 6.5 6.16216H5.5ZM8.5 11.7143C8.5 11.4381 8.27614 11.2143 8 11.2143C7.72386 11.2143 7.5 11.4381 7.5 11.7143H8.5ZM7.5 12C7.5 12.2761 7.72386 12.5 8 12.5C8.27614 12.5 8.5 12.2761 8.5 12H7.5ZM8 10.2857C7.5 10.2857 7.5 10.2857 7.5 10.2857C7.5 10.2857 7.5 10.2857 7.5 10.2857C7.5 10.2857 7.5 10.2857 7.5 10.2857C7.5 10.2858 7.5 10.2858 7.5 10.2858C7.5 10.2858 7.5 10.2858 7.5 10.2858C7.5 10.2858 7.5 10.2858 7.5 10.2858C7.5 10.2859 7.5 10.2859 7.5 10.2859C7.5 10.2859 7.5 10.2859 7.5 10.2859C7.5 10.286 7.5 10.286 7.5 10.286C7.5 10.286 7.5 10.286 7.5 10.2861C7.5 10.2861 7.5 10.2861 7.5 10.2861C7.5 10.2862 7.5 10.2862 7.5 10.2862C7.5 10.2862 7.5 10.2863 7.5 10.2863C7.5 10.2863 7.5 10.2864 7.5 10.2864C7.5 10.2864 7.5 10.2865 7.5 10.2865C7.5 10.2865 7.5 10.2866 7.5 10.2866C7.5 10.2866 7.5 10.2867 7.5 10.2867C7.5 10.2867 7.5 10.2868 7.5 10.2868C7.5 10.2869 7.5 10.2869 7.5 10.2869C7.5 10.287 7.5 10.287 7.5 10.2871C7.5 10.2871 7.5 10.2872 7.5 10.2872C7.5 10.2872 7.5 10.2873 7.5 10.2873C7.5 10.2874 7.5 10.2874 7.5 10.2875C7.5 10.2875 7.5 10.2876 7.5 10.2876C7.5 10.2877 7.5 10.2877 7.5 10.2878C7.5 10.2878 7.5 10.2879 7.5 10.2879C7.5 10.288 7.5 10.2881 7.5 10.2881C7.5 10.2882 7.5 10.2882 7.5 10.2883C7.5 10.2883 7.5 10.2884 7.5 10.2885C7.5 10.2885 7.5 10.2886 7.5 10.2886C7.5 10.2887 7.5 10.2888 7.5 10.2888C7.5 10.2889 7.5 10.2889 7.5 10.289C7.5 10.2891 7.5 10.2891 7.5 10.2892C7.5 10.2893 7.5 10.2893 7.5 10.2894C7.5 10.2895 7.5 10.2895 7.5 10.2896C7.5 10.2897 7.5 10.2897 7.5 10.2898C7.5 10.2899 7.5 10.29 7.5 10.29C7.5 10.2901 7.5 10.2902 7.5 10.2902C7.5 10.2903 7.5 10.2904 7.5 10.2905C7.5 10.2905 7.5 10.2906 7.5 10.2907C7.5 10.2908 7.5 10.2908 7.5 10.2909C7.5 10.291 7.5 10.2911 7.5 10.2912C7.5 10.2912 7.5 10.2913 7.5 10.2914C7.5 10.2915 7.5 10.2916 7.5 10.2916C7.5 10.2917 7.5 10.2918 7.5 10.2919C7.5 10.292 7.5 10.292 7.5 10.2921C7.5 10.2922 7.5 10.2923 7.5 10.2924C7.5 10.2925 7.5 10.2926 7.5 10.2926C7.5 10.2927 7.5 10.2928 7.5 10.2929C7.5 10.293 7.5 10.2931 7.5 10.2932C7.5 10.2932 7.5 10.2933 7.5 10.2934C7.5 10.2935 7.5 10.2936 7.5 10.2937C7.5 10.2938 7.5 10.2939 7.5 10.294C7.5 10.2941 7.5 10.2941 7.5 10.2942C7.5 10.2943 7.5 10.2944 7.5 10.2945C7.5 10.2946 7.5 10.2947 7.5 10.2948C7.5 10.2949 7.5 10.295 7.5 10.2951C7.5 10.2952 7.5 10.2953 7.5 10.2954C7.5 10.2955 7.5 10.2956 7.5 10.2957C7.5 10.2958 7.5 10.2959 7.5 10.296C7.5 10.2961 7.5 10.2961 7.5 10.2962C7.5 10.2963 7.5 10.2964 7.5 10.2965C7.5 10.2966 7.5 10.2967 7.5 10.2968C7.5 10.2969 7.5 10.297 7.5 10.2971C7.5 10.2972 7.5 10.2973 7.5 10.2974C7.5 10.2975 7.5 10.2977 7.5 10.2978C7.5 10.2979 7.5 10.298 7.5 10.2981C7.5 10.2982 7.5 10.2983 7.5 10.2984C7.5 10.2985 7.5 10.2986 7.5 10.2987C7.5 10.2988 7.5 10.2989 7.5 10.299C7.5 10.2991 7.5 10.2992 7.5 10.2993C7.5 10.2994 7.5 10.2995 7.5 10.2996C7.5 10.2997 7.5 10.2998 7.5 10.2999C7.5 10.3 7.5 10.3002 7.5 10.3003C7.5 10.3004 7.5 10.3005 7.5 10.3006C7.5 10.3007 7.5 10.3008 7.5 10.3009C7.5 10.301 7.5 10.3011 7.5 10.3012C7.5 10.3013 7.5 10.3014 7.5 10.3016C7.5 10.3017 7.5 10.3018 7.5 10.3019C7.5 10.302 7.5 10.3021 7.5 10.3022C7.5 10.3023 7.5 10.3024 7.5 10.3025C7.5 10.3026 7.5 10.3027 7.5 10.3029C7.5 10.303 7.5 10.3031 7.5 10.3032C7.5 10.3033 7.5 10.3034 7.5 10.3035C7.5 10.3036 7.5 10.3037 7.5 10.3038C7.5 10.304 7.5 10.3041 7.5 10.3042C7.5 10.3043 7.5 10.3044 7.5 10.3045C7.5 10.3046 7.5 10.3047 7.5 10.3048C7.5 10.3049 7.5 10.3051 7.5 10.3052C7.5 10.3053 7.5 10.3054 7.5 10.3055C7.5 10.3056 7.5 10.3057 7.5 10.3058C7.5 10.3059 7.5 10.3061 7.5 10.3062C7.5 10.3063 7.5 10.3064 7.5 10.3065C7.5 10.3066 7.5 10.3067 7.5 10.3068C7.5 10.3069 7.5 10.307 7.5 10.3072C7.5 10.3073 7.5 10.3074 7.5 10.3075C7.5 10.3076 7.5 10.3077 7.5 10.3078C7.5 10.3079 7.5 10.308 7.5 10.3081C7.5 10.3083 7.5 10.3084 7.5 10.3085C7.5 10.3086 7.5 10.3087 7.5 10.3088C7.5 10.3089 7.5 10.309 7.5 10.3091C7.5 10.3092 7.5 10.3093 7.5 10.3095C7.5 10.3096 7.5 10.3097 7.5 10.3098C7.5 10.3099 7.5 10.31 7.5 10.3101C7.5 10.3102 7.5 10.3103 7.5 10.3104C7.5 10.3105 7.5 10.3106 7.5 10.3108C7.5 10.3109 7.5 10.311 7.5 10.3111C7.5 10.3112 7.5 10.3113 7.5 10.3114C7.5 10.3115 7.5 10.3116 7.5 10.3117C7.5 10.3118 7.5 10.3119 7.5 10.312C7.5 10.3121 7.5 10.3122 7.5 10.3123C7.5 10.3124 7.5 10.3126 7.5 10.3127C7.5 10.3128 7.5 10.3129 7.5 10.313C7.5 10.3131 7.5 10.3132 7.5 10.3133C7.5 10.3134 7.5 10.3135 7.5 10.3136C7.5 10.3137 7.5 10.3138 7.5 10.3139C7.5 10.314 7.5 10.3141 7.5 10.3142C7.5 10.3143 7.5 10.3144 7.5 10.3145C7.5 10.3146 7.5 10.3147 7.5 10.3148C7.5 10.3149 7.5 10.315 7.5 10.3151C7.5 10.3152 7.5 10.3153 7.5 10.3154C7.5 10.3155 7.5 10.3156 7.5 10.3157C7.5 10.3158 7.5 10.3159 7.5 10.316C7.5 10.3161 7.5 10.3162 7.5 10.3163C7.5 10.3164 7.5 10.3165 7.5 10.3166C7.5 10.3167 7.5 10.3167 7.5 10.3168C7.5 10.3169 7.5 10.317 7.5 10.3171C7.5 10.3172 7.5 10.3173 7.5 10.3174C7.5 10.3175 7.5 10.3176 7.5 10.3177C7.5 10.3178 7.5 10.3179 7.5 10.3179C7.5 10.318 7.5 10.3181 7.5 10.3182C7.5 10.3183 7.5 10.3184 7.5 10.3185C7.5 10.3186 7.5 10.3186 7.5 10.3187C7.5 10.3188 7.5 10.3189 7.5 10.319C7.5 10.3191 7.5 10.3192 7.5 10.3192C7.5 10.3193 7.5 10.3194 7.5 10.3195C7.5 10.3196 7.5 10.3197 7.5 10.3197C7.5 10.3198 7.5 10.3199 7.5 10.32C7.5 10.3201 7.5 10.3202 7.5 10.3202C7.5 10.3203 7.5 10.3204 7.5 10.3205C7.5 10.3205 7.5 10.3206 7.5 10.3207C7.5 10.3208 7.5 10.3209 7.5 10.3209C7.5 10.321 7.5 10.3211 7.5 10.3212C7.5 10.3212 7.5 10.3213 7.5 10.3214C7.5 10.3214 7.5 10.3215 7.5 10.3216C7.5 10.3217 7.5 10.3217 7.5 10.3218C7.5 10.3219 7.5 10.3219 7.5 10.322C7.5 10.3221 7.5 10.3221 7.5 10.3222C7.5 10.3223 7.5 10.3223 7.5 10.3224C7.5 10.3225 7.5 10.3225 7.5 10.3226C7.5 10.3227 7.5 10.3227 7.5 10.3228C7.5 10.3228 7.5 10.3229 7.5 10.323C7.5 10.323 7.5 10.3231 7.5 10.3231C7.5 10.3232 7.5 10.3233 7.5 10.3233C7.5 10.3234 7.5 10.3234 7.5 10.3235C7.5 10.3235 7.5 10.3236 7.5 10.3237C7.5 10.3237 7.5 10.3238 7.5 10.3238C7.5 10.3239 7.5 10.3239 7.5 10.324C7.5 10.324 7.5 10.3241 7.5 10.3241C7.5 10.3242 7.5 10.3242 7.5 10.3243C7.5 10.3243 7.5 10.3243 7.5 10.3244C7.5 10.3244 7.5 10.3245 7.5 10.3245C7.5 10.3246 7.5 10.3246 7.5 10.3246C7.5 10.3247 7.5 10.3247 7.5 10.3248C7.5 10.3248 7.5 10.3248 7.5 10.3249C7.5 10.3249 7.5 10.3249 7.5 10.325C7.5 10.325 7.5 10.3251 7.5 10.3251C7.5 10.3251 7.5 10.3251 7.5 10.3252C7.5 10.3252 7.5 10.3252 7.5 10.3253C7.5 10.3253 7.5 10.3253 7.5 10.3254C7.5 10.3254 7.5 10.3254 7.5 10.3254C7.5 10.3255 7.5 10.3255 7.5 10.3255C7.5 10.3255 7.5 10.3255 7.5 10.3256C7.5 10.3256 7.5 10.3256 7.5 10.3256C7.5 10.3256 7.5 10.3257 7.5 10.3257C7.5 10.3257 7.5 10.3257 7.5 10.3257C7.5 10.3257 7.5 10.3257 7.5 10.3257C7.5 10.3258 7.5 10.3258 7.5 10.3258C7.5 10.3258 7.5 10.3258 7.5 10.3258C7.5 10.3258 7.5 10.3258 7.5 10.3258C7.5 10.3258 7.5 10.3258 7.5 10.3258C7.5 10.3258 8 10.3258 8.5 10.3258C8.5 10.3258 8.5 10.3258 8.5 10.3258C8.5 10.3258 8.5 10.3258 8.5 10.3258C8.5 10.3258 8.5 10.3258 8.5 10.3258C8.5 10.3258 8.5 10.3258 8.5 10.3258C8.5 10.3257 8.5 10.3257 8.5 10.3257C8.5 10.3257 8.5 10.3257 8.5 10.3257C8.5 10.3257 8.5 10.3256 8.5 10.3256C8.5 10.3256 8.5 10.3256 8.5 10.3256C8.5 10.3255 8.5 10.3255 8.5 10.3255C8.5 10.3255 8.5 10.3254 8.5 10.3254C8.5 10.3254 8.5 10.3254 8.5 10.3253C8.5 10.3253 8.5 10.3253 8.5 10.3252C8.5 10.3252 8.5 10.3252 8.5 10.3251C8.5 10.3251 8.5 10.3251 8.5 10.325C8.5 10.325 8.5 10.325 8.5 10.3249C8.5 10.3249 8.5 10.3248 8.5 10.3248C8.5 10.3247 8.5 10.3247 8.5 10.3247C8.5 10.3246 8.5 10.3246 8.5 10.3245C8.5 10.3245 8.5 10.3244 8.5 10.3244C8.5 10.3243 8.5 10.3243 8.5 10.3242C8.5 10.3241 8.5 10.3241 8.5 10.324C8.5 10.324 8.5 10.3239 8.5 10.3238C8.5 10.3238 8.5 10.3237 8.5 10.3237C8.5 10.3236 8.5 10.3235 8.5 10.3235C8.5 10.3234 8.5 10.3233 8.5 10.3233C8.5 10.3232 8.5 10.3231 8.5 10.323C8.5 10.323 8.5 10.3229 8.5 10.3228C8.5 10.3227 8.5 10.3227 8.5 10.3226C8.5 10.3225 8.5 10.3224 8.5 10.3223C8.5 10.3223 8.5 10.3222 8.5 10.3221C8.5 10.322 8.5 10.3219 8.5 10.3218C8.5 10.3217 8.5 10.3216 8.5 10.3215C8.5 10.3215 8.5 10.3214 8.5 10.3213C8.5 10.3212 8.5 10.3211 8.5 10.321C8.5 10.3209 8.5 10.3208 8.5 10.3207C8.5 10.3206 8.5 10.3205 8.5 10.3204C8.5 10.3202 8.5 10.3201 8.5 10.32C8.5 10.3199 8.5 10.3198 8.5 10.3197C8.5 10.3196 8.5 10.3195 8.5 10.3194C8.5 10.3192 8.5 10.3191 8.5 10.319C8.5 10.3189 8.5 10.3188 8.5 10.3186C8.5 10.3185 8.5 10.3184 8.5 10.3183C8.5 10.3181 8.5 10.318 8.5 10.3179C8.5 10.3177 8.5 10.3176 8.5 10.3175C8.5 10.3173 8.5 10.3172 8.5 10.3171C8.5 10.3169 8.5 10.3168 8.5 10.3166C8.5 10.3165 8.5 10.3164 8.5 10.3162C8.5 10.3161 8.5 10.3159 8.5 10.3158C8.5 10.3156 8.5 10.3155 8.5 10.3153C8.5 10.3152 8.5 10.315 8.5 10.3149C8.5 10.3147 8.5 10.3145 8.5 10.3144C8.5 10.3142 8.5 10.3141 8.5 10.3139C8.5 10.3137 8.5 10.3136 8.5 10.3134C8.5 10.3132 8.5 10.3131 8.5 10.3129C8.5 10.3127 8.5 10.3125 8.5 10.3124C8.5 10.3122 8.5 10.312 8.5 10.3118C8.5 10.3117 8.5 10.3115 8.5 10.3113C8.5 10.3111 8.5 10.3109 8.5 10.3107C8.5 10.3105 8.5 10.3104 8.5 10.3102C8.5 10.31 8.5 10.3098 8.5 10.3096C8.5 10.3094 8.5 10.3092 8.5 10.309C8.5 10.3088 8.5 10.3086 8.5 10.3084C8.5 10.3082 8.5 10.308 8.5 10.3078C8.5 10.3076 8.5 10.3074 8.5 10.3071C8.5 10.3069 8.5 10.3067 8.5 10.3065C8.5 10.3063 8.5 10.3061 8.5 10.3058C8.5 10.3056 8.5 10.3054 8.5 10.3052C8.5 10.305 8.5 10.3047 8.5 10.3045C8.5 10.3043 8.5 10.304 8.5 10.3038C8.5 10.3036 8.5 10.3033 8.5 10.3031C8.5 10.3029 8.5 10.3026 8.5 10.3024C8.5 10.3021 8.5 10.3019 8.5 10.3016C8.5 10.3014 8.5 10.3012 8.5 10.3009C8.5 10.3007 8.5 10.3004 8.5 10.3001C8.5 10.2999 8.5 10.2996 8.5 10.2994C8.5 10.2991 8.5 10.2989 8.5 10.2986C8.5 10.2983 8.5 10.2981 8.5 10.2978C8.5 10.2975 8.5 10.2973 8.5 10.297C8.5 10.2967 8.5 10.2964 8.5 10.2962C8.5 10.2959 8.5 10.2956 8.5 10.2953C8.5 10.295 8.5 10.2948 8.5 10.2945C8.5 10.2942 8.5 10.2939 8.5 10.2936C8.5 10.2933 8.5 10.293 8.5 10.2927C8.5 10.2924 8.5 10.2921 8.5 10.2918C8.5 10.2915 8.5 10.2912 8.5 10.2909C8.5 10.2906 8.5 10.2903 8.5 10.29C8.5 10.2897 8.5 10.2894 8.5 10.2891C8.5 10.2887 8.5 10.2884 8.5 10.2881C8.5 10.2878 8.5 10.2875 8.5 10.2871C8.5 10.2868 8.5 10.2865 8.5 10.2862C8.5 10.2858 8.5 10.2855 8.5 10.2852C8.5 10.2848 8.5 10.2845 8.5 10.2842C8.5 10.2838 8.5 10.2835 8.5 10.2831C8.5 10.2828 8.5 10.2824 8.5 10.2821C8.5 10.2817 8.5 10.2814 8.5 10.281C8.5 10.2807 8.5 10.2803 8.5 10.28C8.5 10.2796 8.5 10.2793 8.5 10.2789C8.5 10.2785 8.5 10.2782 8.5 10.2778C8.5 10.2774 8.5 10.2771 8.5 10.2767C8.5 10.2763 8.5 10.2759 8.5 10.2755C8.5 10.2752 8.5 10.2748 8.5 10.2744C8.5 10.274 8.5 10.2736 8.5 10.2732C8.5 10.2729 8.5 10.2725 8.5 10.2721C8.5 10.2717 8.5 10.2713 8.5 10.2709C8.5 10.2705 8.5 10.2701 8.5 10.2697C8.5 10.2693 8.5 10.2689 8.5 10.2684C8.5 10.268 8.5 10.2676 8.5 10.2672C8.5 10.2668 8.5 10.2664 8.5 10.266C8.5 10.2655 8.5 10.2651 8.5 10.2647C8.5 10.2643 8.5 10.2638 8.5 10.2634C8.5 10.263 8.5 10.2625 8.5 10.2621C8.5 10.2617 8.5 10.2612 8.5 10.2608C8.5 10.2603 8.5 10.2599 8.5 10.2594C8.5 10.259 8.5 10.2585 8.5 10.2581C8.5 10.2576 8.5 10.2572 8.5 10.2567C8.5 10.2563 8.5 10.2558 8.5 10.2553C8.5 10.2549 8.5 10.2544 8.5 10.2539C8.5 10.2535 8.5 10.253 8.5 10.2525C8.5 10.252 8.5 10.2516 8.5 10.2511C8.5 10.2506 8.5 10.2501 8.5 10.2496C8.5 10.2491 8.5 10.2487 8.5 10.2482C8.5 10.2477 8.5 10.2472 8.5 10.2467C8.5 10.2462 8.5 10.2457 8.5 10.2452C8.5 10.2447 8.5 10.2442 8.5 10.2437C8.5 10.2431 8.5 10.2426 8.5 10.2421C8.5 10.2416 8.5 10.2411 8.5 10.2406C8.5 10.24 8.5 10.2395 8.5 10.239C8.5 10.2385 8.5 10.2379 8.5 10.2374C8.5 10.2369 8.5 10.2363 8.5 10.2358C8.5 10.2353 8.5 10.2347 8.5 10.2342C8.5 10.2336 8.5 10.2331 8.5 10.2325C8.5 10.232 8.5 10.2314 8.5 10.2309C8.5 10.2303 8.5 10.2298 8.5 10.2292C8.5 10.2286 8.5 10.2281 8.5 10.2275C8.5 10.2269 8.5 10.2264 8.5 10.2258C8.5 10.2252 8.5 10.2246 8.5 10.2241C8.5 10.2235 8.5 10.2229 8.5 10.2223C8.5 10.2217 8.5 10.2211 8.5 10.2205C8.5 10.2199 8.5 10.2193 8.5 10.2187C8.5 10.2181 8.5 10.2175 8.5 10.2169C8.5 10.2163 8.5 10.2157 8.5 10.2151C8.5 10.2145 8.5 10.2139 8.5 10.2133C8.5 10.2127 8.5 10.212 8.5 10.2114C8.5 10.2108 8.5 10.2102 8.5 10.2095C8.5 10.2089 8.5 10.2083 8.5 10.2076C8.5 10.207 8.5 10.2064 8.5 10.2057C8.5 10.2051 8.5 10.2044 8.5 10.2038C8.5 10.2031 8.5 10.2025 8.5 10.2018C8.5 10.2012 8.5 10.2005 8.5 10.1998C8.5 10.1992 8.5 10.1985 8.5 10.1978C8.5 10.1972 8.5 10.1965 8.5 10.1958C8.5 10.1952 8.5 10.1945 8.5 10.1938C8.5 10.1931 8.5 10.1924 8.5 10.1917C8.5 10.1911 8.5 10.1904 8.5 10.1897C8.5 10.189 8.5 10.1883 8.5 10.1876C8.5 10.1869 8.5 10.1862 8.5 10.1855C8.5 10.1848 8.5 10.184 8.5 10.1833C8.5 10.1826 8.5 10.1819 8.5 10.1812C8.5 10.1805 8.5 10.1797 8.5 10.179C8.5 10.1783 8.5 10.1775 8.5 10.1768C8.5 10.1761 8.5 10.1753 8.5 10.1746C8.5 10.1739 8.5 10.1731 8.5 10.1724C8.5 10.1716 8.5 10.1709 8.5 10.1701C8.5 10.1694 8.5 10.1686 8.5 10.1678C8.5 10.1671 8.5 10.1663 8.5 10.1655C8.5 10.1648 8.5 10.164 8.5 10.1632C8.5 10.1625 8.5 10.1617 8.5 10.1609C8.5 10.1601 8.5 10.1593 8.5 10.1585C8.5 10.1578 8.5 10.157 8.5 10.1562C8.5 10.1554 8.5 10.1546 8.5 10.1538C8.5 10.153 8.5 10.1522 8.5 10.1513C8.5 10.1505 8.5 10.1497 8.5 10.1489C8.5 10.1481 8.5 10.1473 8.5 10.1464C8.5 10.1456 8.5 10.1448 8.5 10.144C8.5 10.1431 8.5 10.1423 8.5 10.1415C8.5 10.1406 8.5 10.1398 8.5 10.1389C8.5 10.1381 8.5 10.1372 8.5 10.1364C8.5 10.1355 8.5 10.1347 8.5 10.1338C8.5 10.133 8.5 10.1321 8.5 10.1312C8.5 10.1304 8.5 10.1295 8.5 10.1286C8.5 10.1277 8.5 10.1269 8.5 10.126C8.5 10.1251 8.5 10.1242 8.5 10.1233C8.5 10.1224 8.5 10.1216 8.5 10.1207C8.5 10.1198 8.5 10.1189 8.5 10.118C8.5 10.1171 8.5 10.1161 8.5 10.1152C8.5 10.1143 8.5 10.1134 8.5 10.1125C8.5 10.1116 8.5 10.1107 8.5 10.1097C8.5 10.1088 8.5 10.1079 8.5 10.1069C8.5 10.106 8.5 10.1051 8.5 10.1041C8.5 10.1032 8.5 10.1022 8.5 10.1013C8.5 10.1003 8.5 10.0994 8.5 10.0984C8.5 10.0975 8.5 10.0965 8.5 10.0956C8.5 10.0946 8.5 10.0936 8.5 10.0927C8.5 10.0917 8.5 10.0907 8.5 10.0897C8.5 10.0888 8.5 10.0878 8.5 10.0868C8.5 10.0858 8.5 10.0848 8.5 10.0838C8.5 10.0828 8.5 10.0818 8.5 10.0808C8.5 10.0798 8.5 10.0788 8.5 10.0778C8.5 10.0768 8.5 10.0758 8.5 10.0748C8.5 10.0738 8.5 10.0727 8.5 10.0717C8.5 10.0707 8.5 10.0697 8.5 10.0686C8.5 10.0676 8.5 10.0666 8.5 10.0655C8.5 10.0645 8.5 10.0634 8.5 10.0624C8.5 10.0613 8.5 10.0603 8.5 10.0592C8.5 10.0582 8.5 10.0571 8.5 10.056C8.5 10.055 8.5 10.0539 8.5 10.0528C8.5 10.0518 8.5 10.0507 8.5 10.0496C8.5 10.0485 8.5 10.0475 8.5 10.0464C8.5 10.0453 8.5 10.0442 8.5 10.0431C8.5 10.042 8.5 10.0409 8.5 10.0398C8.5 10.0387 8.5 10.0376 8.5 10.0365C8.5 10.0354 8.5 10.0342 8.5 10.0331C8.5 10.032 8.5 10.0309 8.5 10.0297C8.5 10.0286 8.5 10.0275 8.5 10.0263C8.5 10.0252 8.5 10.0241 8.5 10.0229C8.5 10.0218 8.5 10.0206 8.5 10.0195C8.5 10.0183 8.5 10.0172 8.5 10.016C8.5 10.0148 8.5 10.0137 8.5 10.0125C8.5 10.0113 8.5 10.0102 8.5 10.009C8.5 10.0078 8.5 10.0066 8.5 10.0054C8.5 10.0043 8.5 10.0031 8.5 10.0019C8.5 10.0007 8.5 9.99949 8.5 9.99828C8.5 9.99708 8.5 9.99587 8.5 9.99466C8.5 9.99345 8.5 9.99224 8.5 9.99102C8.5 9.9898 8.5 9.98857 8.5 9.98735C8.5 9.98612 8.5 9.98489 8.5 9.98365C8.5 9.98241 8.5 9.98117 8.5 9.97993C8.5 9.97868 8.5 9.97743 8.5 9.97618C8.5 9.97493 8.5 9.97367 8.5 9.97241C8.5 9.97115 8.5 9.96988 8.5 9.96861C8.5 9.96734 8.5 9.96606 8.5 9.96478C8.5 9.96351 8.5 9.96222 8.5 9.96093C8.5 9.95965 8.5 9.95835 8.5 9.95706C8.5 9.95576 8.5 9.95446 8.5 9.95316C8.5 9.95185 8.5 9.95054 8.5 9.94923C8.5 9.94791 8.5 9.94659 8.5 9.94527C8.5 9.94395 8.5 9.94262 8.5 9.94129C8.5 9.93996 8.5 9.93862 8.5 9.93728C8.5 9.93594 8.5 9.9346 8.5 9.93325C8.5 9.9319 8.5 9.93055 8.5 9.92919C8.5 9.92783 8.5 9.92647 8.5 9.9251C8.5 9.92374 8.5 9.92236 8.5 9.92099C8.5 9.91961 8.5 9.91823 8.5 9.91685C8.5 9.91546 8.5 9.91407 8.5 9.91268C8.5 9.91129 8.5 9.90989 8.5 9.90849C8.5 9.90708 8.5 9.90568 8.5 9.90426C8.5 9.90285 8.5 9.90144 8.5 9.90002C8.5 9.8986 8.5 9.89717 8.5 9.89574C8.5 9.89431 8.5 9.89288 8.5 9.89144C8.5 9.89 8.5 9.88856 8.5 9.88711C8.5 9.88566 8.5 9.88421 8.5 9.88275C8.5 9.88129 8.5 9.87983 8.5 9.87837C8.5 9.8769 8.5 9.87543 8.5 9.87395C8.5 9.87248 8.5 9.871 8.5 9.86951C8.5 9.86803 8.5 9.86654 8.5 9.86505C8.5 9.86355 8.5 9.86205 8.5 9.86055C8.5 9.85905 8.5 9.85754 8.5 9.85603C8.5 9.85451 8.5 9.853 8.5 9.85148C8.5 9.84995 8.5 9.84843 8.5 9.8469C8.5 9.84536 8.5 9.84383 8.5 9.84229C8.5 9.84075 8.5 9.8392 8.5 9.83765C8.5 9.8361 8.5 9.83455 8.5 9.83299C8.5 9.83143 8.5 9.82986 8.5 9.8283C8.5 9.82673 8.5 9.82515 8.5 9.82357C8.5 9.822 8.5 9.82041 8.5 9.81882C8.5 9.81724 8.5 9.81564 8.5 9.81405C8.5 9.81245 8.5 9.81085 8.5 9.80924C8.5 9.80763 8.5 9.80602 8.5 9.8044C8.5 9.80279 8.5 9.80117 8.5 9.79954C8.5 9.79791 8.5 9.79628 8.5 9.79465C8.5 9.79301 8.5 9.79137 8.5 9.78972C8.5 9.78808 8.5 9.78643 8.5 9.78477C8.5 9.78312 8.5 9.78146 8.5 9.77979C8.5 9.77813 8.5 9.77646 8.5 9.77478C8.5 9.77311 8.5 9.77143 8.5 9.76974C8.5 9.76806 8.5 9.76637 8.5 9.76467C8.5 9.76298 8.5 9.76128 8.5 9.75958C8.5 9.75787 8.5 9.75616 8.5 9.75445C8.5 9.75273 8.5 9.75102 8.5 9.74929C8.5 9.74757 8.5 9.74584 8.5 9.7441C8.5 9.74237 8.5 9.74063 8.5 9.73889C8.5 9.73714 8.5 9.73539 8.5 9.73364C8.5 9.73189 8.5 9.73013 8.5 9.72836C8.5 9.7266 8.5 9.72483 8.5 9.72306C8.5 9.72128 8.5 9.7195 8.5 9.71772C8.5 9.71594 8.5 9.71415 8.5 9.71235C8.5 9.71056 8.5 9.70876 8.5 9.70696C8.5 9.70515 8.5 9.70334 8.5 9.70153C8.5 9.69971 8.5 9.69789 8.5 9.69607C8.5 9.69424 8.5 9.69242 8.5 9.69058C8.5 9.68875 8.5 9.68691 8.5 9.68506C8.5 9.68322 8.5 9.68137 8.5 9.67951C8.5 9.67766 8.5 9.6758 8.5 9.67393C8.5 9.67206 8.5 9.67019 8.5 9.66832C8.5 9.66644 8.5 9.66456 8.5 9.66268C8.5 9.66079 8.5 9.6589 8.5 9.657C8.5 9.65511 8.5 9.6532 8.5 9.6513C8.5 9.64939 8.5 9.64748 8.5 9.64556C8.5 9.64364 8.5 9.64172 8.5 9.63979C8.5 9.63787 8.5 9.63593 8.5 9.634C8.5 9.63206 8.5 9.63011 8.5 9.62816C8.5 9.62622 8.5 9.62426 8.5 9.6223C8.5 9.62034 8.5 9.61838 8.5 9.61641C8.5 9.61444 8.5 9.61247 8.5 9.61049C8.5 9.60851 8.5 9.60652 8.5 9.60453C8.5 9.60254 8.5 9.60054 8.5 9.59854C8.5 9.59654 8.5 9.59453 8.5 9.59252C8.5 9.59051 8.5 9.58849 8.5 9.58647C8.5 9.58445 8.5 9.58242 8.5 9.58038C8.5 9.57835 8.5 9.57631 8.5 9.57427C8.5 9.57222 8.5 9.57017 8.5 9.56812C8.5 9.56606 8.5 9.564 8.5 9.56194C8.5 9.55987 8.5 9.5578 8.5 9.55572C8.5 9.55365 8.5 9.55157 8.5 9.54948C8.5 9.54739 8.5 9.5453 8.5 9.5432C8.5 9.5411 8.5 9.539 8.5 9.53689C8.5 9.53478 8.5 9.53267 8.5 9.53055C8.5 9.52843 8.5 9.5263 8.5 9.52417C8.5 9.52204 8.5 9.5199 8.5 9.51776C8.5 9.51562 8.5 9.51347 8.5 9.51132C8.5 9.50916 8.5 9.50701 8.5 9.50484C8.5 9.50268 8.5 9.50051 8.5 9.49833C8.5 9.49616 8.5 9.49398 8.5 9.49179C8.5 9.48961 8.5 9.48741 8.5 9.48522C8.5 9.48302 8.5 9.48082 8.5 9.47861C8.5 9.4764 8.5 9.47419 8.5 9.47197C8.5 9.46975 8.5 9.46752 8.5 9.46529C8.5 9.46306 8.5 9.46083 8.5 9.45858C8.5 9.45634 8.5 9.45409 8.5 9.45184C8.5 9.44959 8.5 9.44733 8.5 9.44507H7.5C7.5 9.44733 7.5 9.44959 7.5 9.45184C7.5 9.45409 7.5 9.45634 7.5 9.45858C7.5 9.46083 7.5 9.46306 7.5 9.46529C7.5 9.46752 7.5 9.46975 7.5 9.47197C7.5 9.47419 7.5 9.4764 7.5 9.47861C7.5 9.48082 7.5 9.48302 7.5 9.48522C7.5 9.48741 7.5 9.48961 7.5 9.49179C7.5 9.49398 7.5 9.49616 7.5 9.49833C7.5 9.50051 7.5 9.50268 7.5 9.50484C7.5 9.50701 7.5 9.50916 7.5 9.51132C7.5 9.51347 7.5 9.51562 7.5 9.51776C7.5 9.5199 7.5 9.52204 7.5 9.52417C7.5 9.5263 7.5 9.52843 7.5 9.53055C7.5 9.53267 7.5 9.53478 7.5 9.53689C7.5 9.539 7.5 9.5411 7.5 9.5432C7.5 9.5453 7.5 9.54739 7.5 9.54948C7.5 9.55157 7.5 9.55365 7.5 9.55572C7.5 9.5578 7.5 9.55987 7.5 9.56194C7.5 9.564 7.5 9.56606 7.5 9.56812C7.5 9.57017 7.5 9.57222 7.5 9.57427C7.5 9.57631 7.5 9.57835 7.5 9.58038C7.5 9.58242 7.5 9.58445 7.5 9.58647C7.5 9.58849 7.5 9.59051 7.5 9.59252C7.5 9.59453 7.5 9.59654 7.5 9.59854C7.5 9.60054 7.5 9.60254 7.5 9.60453C7.5 9.60652 7.5 9.60851 7.5 9.61049C7.5 9.61247 7.5 9.61444 7.5 9.61641C7.5 9.61838 7.5 9.62034 7.5 9.6223C7.5 9.62426 7.5 9.62622 7.5 9.62816C7.5 9.63011 7.5 9.63206 7.5 9.634C7.5 9.63593 7.5 9.63787 7.5 9.63979C7.5 9.64172 7.5 9.64364 7.5 9.64556C7.5 9.64748 7.5 9.64939 7.5 9.6513C7.5 9.6532 7.5 9.65511 7.5 9.657C7.5 9.6589 7.5 9.66079 7.5 9.66268C7.5 9.66456 7.5 9.66644 7.5 9.66832C7.5 9.67019 7.5 9.67206 7.5 9.67393C7.5 9.6758 7.5 9.67766 7.5 9.67951C7.5 9.68137 7.5 9.68322 7.5 9.68506C7.5 9.68691 7.5 9.68875 7.5 9.69058C7.5 9.69242 7.5 9.69424 7.5 9.69607C7.5 9.69789 7.5 9.69971 7.5 9.70153C7.5 9.70334 7.5 9.70515 7.5 9.70696C7.5 9.70876 7.5 9.71056 7.5 9.71235C7.5 9.71415 7.5 9.71594 7.5 9.71772C7.5 9.7195 7.5 9.72128 7.5 9.72306C7.5 9.72483 7.5 9.7266 7.5 9.72836C7.5 9.73013 7.5 9.73189 7.5 9.73364C7.5 9.73539 7.5 9.73714 7.5 9.73889C7.5 9.74063 7.5 9.74237 7.5 9.7441C7.5 9.74584 7.5 9.74757 7.5 9.74929C7.5 9.75102 7.5 9.75273 7.5 9.75445C7.5 9.75616 7.5 9.75787 7.5 9.75958C7.5 9.76128 7.5 9.76298 7.5 9.76467C7.5 9.76637 7.5 9.76806 7.5 9.76974C7.5 9.77143 7.5 9.77311 7.5 9.77478C7.5 9.77646 7.5 9.77813 7.5 9.77979C7.5 9.78146 7.5 9.78312 7.5 9.78477C7.5 9.78643 7.5 9.78808 7.5 9.78972C7.5 9.79137 7.5 9.79301 7.5 9.79465C7.5 9.79628 7.5 9.79791 7.5 9.79954C7.5 9.80117 7.5 9.80279 7.5 9.8044C7.5 9.80602 7.5 9.80763 7.5 9.80924C7.5 9.81085 7.5 9.81245 7.5 9.81405C7.5 9.81564 7.5 9.81724 7.5 9.81882C7.5 9.82041 7.5 9.822 7.5 9.82357C7.5 9.82515 7.5 9.82673 7.5 9.8283C7.5 9.82986 7.5 9.83143 7.5 9.83299C7.5 9.83455 7.5 9.8361 7.5 9.83765C7.5 9.8392 7.5 9.84075 7.5 9.84229C7.5 9.84383 7.5 9.84536 7.5 9.8469C7.5 9.84843 7.5 9.84995 7.5 9.85148C7.5 9.853 7.5 9.85451 7.5 9.85603C7.5 9.85754 7.5 9.85905 7.5 9.86055C7.5 9.86205 7.5 9.86355 7.5 9.86505C7.5 9.86654 7.5 9.86803 7.5 9.86951C7.5 9.871 7.5 9.87248 7.5 9.87395C7.5 9.87543 7.5 9.8769 7.5 9.87837C7.5 9.87983 7.5 9.88129 7.5 9.88275C7.5 9.88421 7.5 9.88566 7.5 9.88711C7.5 9.88856 7.5 9.89 7.5 9.89144C7.5 9.89288 7.5 9.89431 7.5 9.89574C7.5 9.89717 7.5 9.8986 7.5 9.90002C7.5 9.90144 7.5 9.90285 7.5 9.90426C7.5 9.90568 7.5 9.90708 7.5 9.90849C7.5 9.90989 7.5 9.91129 7.5 9.91268C7.5 9.91407 7.5 9.91546 7.5 9.91685C7.5 9.91823 7.5 9.91961 7.5 9.92099C7.5 9.92236 7.5 9.92374 7.5 9.9251C7.5 9.92647 7.5 9.92783 7.5 9.92919C7.5 9.93055 7.5 9.9319 7.5 9.93325C7.5 9.9346 7.5 9.93594 7.5 9.93728C7.5 9.93862 7.5 9.93996 7.5 9.94129C7.5 9.94262 7.5 9.94395 7.5 9.94527C7.5 9.94659 7.5 9.94791 7.5 9.94923C7.5 9.95054 7.5 9.95185 7.5 9.95316C7.5 9.95446 7.5 9.95576 7.5 9.95706C7.5 9.95835 7.5 9.95965 7.5 9.96093C7.5 9.96222 7.5 9.96351 7.5 9.96478C7.5 9.96606 7.5 9.96734 7.5 9.96861C7.5 9.96988 7.5 9.97115 7.5 9.97241C7.5 9.97367 7.5 9.97493 7.5 9.97618C7.5 9.97743 7.5 9.97868 7.5 9.97993C7.5 9.98117 7.5 9.98241 7.5 9.98365C7.5 9.98489 7.5 9.98612 7.5 9.98735C7.5 9.98857 7.5 9.9898 7.5 9.99102C7.5 9.99224 7.5 9.99345 7.5 9.99466C7.5 9.99587 7.5 9.99708 7.5 9.99828C7.5 9.99949 7.5 10.0007 7.5 10.0019C7.5 10.0031 7.5 10.0043 7.5 10.0054C7.5 10.0066 7.5 10.0078 7.5 10.009C7.5 10.0102 7.5 10.0113 7.5 10.0125C7.5 10.0137 7.5 10.0148 7.5 10.016C7.5 10.0172 7.5 10.0183 7.5 10.0195C7.5 10.0206 7.5 10.0218 7.5 10.0229C7.5 10.0241 7.5 10.0252 7.5 10.0263C7.5 10.0275 7.5 10.0286 7.5 10.0297C7.5 10.0309 7.5 10.032 7.5 10.0331C7.5 10.0342 7.5 10.0354 7.5 10.0365C7.5 10.0376 7.5 10.0387 7.5 10.0398C7.5 10.0409 7.5 10.042 7.5 10.0431C7.5 10.0442 7.5 10.0453 7.5 10.0464C7.5 10.0475 7.5 10.0485 7.5 10.0496C7.5 10.0507 7.5 10.0518 7.5 10.0528C7.5 10.0539 7.5 10.055 7.5 10.056C7.5 10.0571 7.5 10.0582 7.5 10.0592C7.5 10.0603 7.5 10.0613 7.5 10.0624C7.5 10.0634 7.5 10.0645 7.5 10.0655C7.5 10.0666 7.5 10.0676 7.5 10.0686C7.5 10.0697 7.5 10.0707 7.5 10.0717C7.5 10.0727 7.5 10.0738 7.5 10.0748C7.5 10.0758 7.5 10.0768 7.5 10.0778C7.5 10.0788 7.5 10.0798 7.5 10.0808C7.5 10.0818 7.5 10.0828 7.5 10.0838C7.5 10.0848 7.5 10.0858 7.5 10.0868C7.5 10.0878 7.5 10.0888 7.5 10.0897C7.5 10.0907 7.5 10.0917 7.5 10.0927C7.5 10.0936 7.5 10.0946 7.5 10.0956C7.5 10.0965 7.5 10.0975 7.5 10.0984C7.5 10.0994 7.5 10.1003 7.5 10.1013C7.5 10.1022 7.5 10.1032 7.5 10.1041C7.5 10.1051 7.5 10.106 7.5 10.1069C7.5 10.1079 7.5 10.1088 7.5 10.1097C7.5 10.1107 7.5 10.1116 7.5 10.1125C7.5 10.1134 7.5 10.1143 7.5 10.1152C7.5 10.1161 7.5 10.1171 7.5 10.118C7.5 10.1189 7.5 10.1198 7.5 10.1207C7.5 10.1216 7.5 10.1224 7.5 10.1233C7.5 10.1242 7.5 10.1251 7.5 10.126C7.5 10.1269 7.5 10.1277 7.5 10.1286C7.5 10.1295 7.5 10.1304 7.5 10.1312C7.5 10.1321 7.5 10.133 7.5 10.1338C7.5 10.1347 7.5 10.1355 7.5 10.1364C7.5 10.1372 7.5 10.1381 7.5 10.1389C7.5 10.1398 7.5 10.1406 7.5 10.1415C7.5 10.1423 7.5 10.1431 7.5 10.144C7.5 10.1448 7.5 10.1456 7.5 10.1464C7.5 10.1473 7.5 10.1481 7.5 10.1489C7.5 10.1497 7.5 10.1505 7.5 10.1513C7.5 10.1522 7.5 10.153 7.5 10.1538C7.5 10.1546 7.5 10.1554 7.5 10.1562C7.5 10.157 7.5 10.1578 7.5 10.1585C7.5 10.1593 7.5 10.1601 7.5 10.1609C7.5 10.1617 7.5 10.1625 7.5 10.1632C7.5 10.164 7.5 10.1648 7.5 10.1655C7.5 10.1663 7.5 10.1671 7.5 10.1678C7.5 10.1686 7.5 10.1694 7.5 10.1701C7.5 10.1709 7.5 10.1716 7.5 10.1724C7.5 10.1731 7.5 10.1739 7.5 10.1746C7.5 10.1753 7.5 10.1761 7.5 10.1768C7.5 10.1775 7.5 10.1783 7.5 10.179C7.5 10.1797 7.5 10.1805 7.5 10.1812C7.5 10.1819 7.5 10.1826 7.5 10.1833C7.5 10.184 7.5 10.1848 7.5 10.1855C7.5 10.1862 7.5 10.1869 7.5 10.1876C7.5 10.1883 7.5 10.189 7.5 10.1897C7.5 10.1904 7.5 10.1911 7.5 10.1917C7.5 10.1924 7.5 10.1931 7.5 10.1938C7.5 10.1945 7.5 10.1952 7.5 10.1958C7.5 10.1965 7.5 10.1972 7.5 10.1978C7.5 10.1985 7.5 10.1992 7.5 10.1998C7.5 10.2005 7.5 10.2012 7.5 10.2018C7.5 10.2025 7.5 10.2031 7.5 10.2038C7.5 10.2044 7.5 10.2051 7.5 10.2057C7.5 10.2064 7.5 10.207 7.5 10.2076C7.5 10.2083 7.5 10.2089 7.5 10.2095C7.5 10.2102 7.5 10.2108 7.5 10.2114C7.5 10.212 7.5 10.2127 7.5 10.2133C7.5 10.2139 7.5 10.2145 7.5 10.2151C7.5 10.2157 7.5 10.2163 7.5 10.2169C7.5 10.2175 7.5 10.2181 7.5 10.2187C7.5 10.2193 7.5 10.2199 7.5 10.2205C7.5 10.2211 7.5 10.2217 7.5 10.2223C7.5 10.2229 7.5 10.2235 7.5 10.2241C7.5 10.2246 7.5 10.2252 7.5 10.2258C7.5 10.2264 7.5 10.2269 7.5 10.2275C7.5 10.2281 7.5 10.2286 7.5 10.2292C7.5 10.2298 7.5 10.2303 7.5 10.2309C7.5 10.2314 7.5 10.232 7.5 10.2325C7.5 10.2331 7.5 10.2336 7.5 10.2342C7.5 10.2347 7.5 10.2353 7.5 10.2358C7.5 10.2363 7.5 10.2369 7.5 10.2374C7.5 10.2379 7.5 10.2385 7.5 10.239C7.5 10.2395 7.5 10.24 7.5 10.2406C7.5 10.2411 7.5 10.2416 7.5 10.2421C7.5 10.2426 7.5 10.2431 7.5 10.2437C7.5 10.2442 7.5 10.2447 7.5 10.2452C7.5 10.2457 7.5 10.2462 7.5 10.2467C7.5 10.2472 7.5 10.2477 7.5 10.2482C7.5 10.2487 7.5 10.2491 7.5 10.2496C7.5 10.2501 7.5 10.2506 7.5 10.2511C7.5 10.2516 7.5 10.252 7.5 10.2525C7.5 10.253 7.5 10.2535 7.5 10.2539C7.5 10.2544 7.5 10.2549 7.5 10.2553C7.5 10.2558 7.5 10.2563 7.5 10.2567C7.5 10.2572 7.5 10.2576 7.5 10.2581C7.5 10.2585 7.5 10.259 7.5 10.2594C7.5 10.2599 7.5 10.2603 7.5 10.2608C7.5 10.2612 7.5 10.2617 7.5 10.2621C7.5 10.2625 7.5 10.263 7.5 10.2634C7.5 10.2638 7.5 10.2643 7.5 10.2647C7.5 10.2651 7.5 10.2655 7.5 10.266C7.5 10.2664 7.5 10.2668 7.5 10.2672C7.5 10.2676 7.5 10.268 7.5 10.2684C7.5 10.2689 7.5 10.2693 7.5 10.2697C7.5 10.2701 7.5 10.2705 7.5 10.2709C7.5 10.2713 7.5 10.2717 7.5 10.2721C7.5 10.2725 7.5 10.2729 7.5 10.2732C7.5 10.2736 7.5 10.274 7.5 10.2744C7.5 10.2748 7.5 10.2752 7.5 10.2755C7.5 10.2759 7.5 10.2763 7.5 10.2767C7.5 10.2771 7.5 10.2774 7.5 10.2778C7.5 10.2782 7.5 10.2785 7.5 10.2789C7.5 10.2793 7.5 10.2796 7.5 10.28C7.5 10.2803 7.5 10.2807 7.5 10.281C7.5 10.2814 7.5 10.2817 7.5 10.2821C7.5 10.2824 7.5 10.2828 7.5 10.2831C7.5 10.2835 7.5 10.2838 7.5 10.2842C7.5 10.2845 7.5 10.2848 7.5 10.2852C7.5 10.2855 7.5 10.2858 7.5 10.2862C7.5 10.2865 7.5 10.2868 7.5 10.2871C7.5 10.2875 7.5 10.2878 7.5 10.2881C7.5 10.2884 7.5 10.2887 7.5 10.2891C7.5 10.2894 7.5 10.2897 7.5 10.29C7.5 10.2903 7.5 10.2906 7.5 10.2909C7.5 10.2912 7.5 10.2915 7.5 10.2918C7.5 10.2921 7.5 10.2924 7.5 10.2927C7.5 10.293 7.5 10.2933 7.5 10.2936C7.5 10.2939 7.5 10.2942 7.5 10.2945C7.5 10.2948 7.5 10.295 7.5 10.2953C7.5 10.2956 7.5 10.2959 7.5 10.2962C7.5 10.2964 7.5 10.2967 7.5 10.297C7.5 10.2973 7.5 10.2975 7.5 10.2978C7.5 10.2981 7.5 10.2983 7.5 10.2986C7.5 10.2989 7.5 10.2991 7.5 10.2994C7.5 10.2996 7.5 10.2999 7.5 10.3001C7.5 10.3004 7.5 10.3007 7.5 10.3009C7.5 10.3012 7.5 10.3014 7.5 10.3016C7.5 10.3019 7.5 10.3021 7.5 10.3024C7.5 10.3026 7.5 10.3029 7.5 10.3031C7.5 10.3033 7.5 10.3036 7.5 10.3038C7.5 10.304 7.5 10.3043 7.5 10.3045C7.5 10.3047 7.5 10.305 7.5 10.3052C7.5 10.3054 7.5 10.3056 7.5 10.3058C7.5 10.3061 7.5 10.3063 7.5 10.3065C7.5 10.3067 7.5 10.3069 7.5 10.3071C7.5 10.3074 7.5 10.3076 7.5 10.3078C7.5 10.308 7.5 10.3082 7.5 10.3084C7.5 10.3086 7.5 10.3088 7.5 10.309C7.5 10.3092 7.5 10.3094 7.5 10.3096C7.5 10.3098 7.5 10.31 7.5 10.3102C7.5 10.3104 7.5 10.3105 7.5 10.3107C7.5 10.3109 7.5 10.3111 7.5 10.3113C7.5 10.3115 7.5 10.3117 7.5 10.3118C7.5 10.312 7.5 10.3122 7.5 10.3124C7.5 10.3125 7.5 10.3127 7.5 10.3129C7.5 10.3131 7.5 10.3132 7.5 10.3134C7.5 10.3136 7.5 10.3137 7.5 10.3139C7.5 10.3141 7.5 10.3142 7.5 10.3144C7.5 10.3145 7.5 10.3147 7.5 10.3149C7.5 10.315 7.5 10.3152 7.5 10.3153C7.5 10.3155 7.5 10.3156 7.5 10.3158C7.5 10.3159 7.5 10.3161 7.5 10.3162C7.5 10.3164 7.5 10.3165 7.5 10.3166C7.5 10.3168 7.5 10.3169 7.5 10.3171C7.5 10.3172 7.5 10.3173 7.5 10.3175C7.5 10.3176 7.5 10.3177 7.5 10.3179C7.5 10.318 7.5 10.3181 7.5 10.3183C7.5 10.3184 7.5 10.3185 7.5 10.3186C7.5 10.3188 7.5 10.3189 7.5 10.319C7.5 10.3191 7.5 10.3192 7.5 10.3194C7.5 10.3195 7.5 10.3196 7.5 10.3197C7.5 10.3198 7.5 10.3199 7.5 10.32C7.5 10.3201 7.5 10.3202 7.5 10.3204C7.5 10.3205 7.5 10.3206 7.5 10.3207C7.5 10.3208 7.5 10.3209 7.5 10.321C7.5 10.3211 7.5 10.3212 7.5 10.3213C7.5 10.3214 7.5 10.3215 7.5 10.3215C7.5 10.3216 7.5 10.3217 7.5 10.3218C7.5 10.3219 7.5 10.322 7.5 10.3221C7.5 10.3222 7.5 10.3223 7.5 10.3223C7.5 10.3224 7.5 10.3225 7.5 10.3226C7.5 10.3227 7.5 10.3227 7.5 10.3228C7.5 10.3229 7.5 10.323 7.5 10.323C7.5 10.3231 7.5 10.3232 7.5 10.3233C7.5 10.3233 7.5 10.3234 7.5 10.3235C7.5 10.3235 7.5 10.3236 7.5 10.3237C7.5 10.3237 7.5 10.3238 7.5 10.3238C7.5 10.3239 7.5 10.324 7.5 10.324C7.5 10.3241 7.5 10.3241 7.5 10.3242C7.5 10.3243 7.5 10.3243 7.5 10.3244C7.5 10.3244 7.5 10.3245 7.5 10.3245C7.5 10.3246 7.5 10.3246 7.5 10.3247C7.5 10.3247 7.5 10.3247 7.5 10.3248C7.5 10.3248 7.5 10.3249 7.5 10.3249C7.5 10.325 7.5 10.325 7.5 10.325C7.5 10.3251 7.5 10.3251 7.5 10.3251C7.5 10.3252 7.5 10.3252 7.5 10.3252C7.5 10.3253 7.5 10.3253 7.5 10.3253C7.5 10.3254 7.5 10.3254 7.5 10.3254C7.5 10.3254 7.5 10.3255 7.5 10.3255C7.5 10.3255 7.5 10.3255 7.5 10.3256C7.5 10.3256 7.5 10.3256 7.5 10.3256C7.5 10.3256 7.5 10.3257 7.5 10.3257C7.5 10.3257 7.5 10.3257 7.5 10.3257C7.5 10.3257 7.5 10.3257 7.5 10.3258C7.5 10.3258 7.5 10.3258 7.5 10.3258C7.5 10.3258 7.5 10.3258 7.5 10.3258C7.5 10.3258 7.5 10.3258 7.5 10.3258C7.5 10.3258 7.5 10.3258 7.5 10.3258C8 10.3258 8.5 10.3258 8.5 10.3258C8.5 10.3258 8.5 10.3258 8.5 10.3258C8.5 10.3258 8.5 10.3258 8.5 10.3258C8.5 10.3258 8.5 10.3258 8.5 10.3258C8.5 10.3258 8.5 10.3258 8.5 10.3257C8.5 10.3257 8.5 10.3257 8.5 10.3257C8.5 10.3257 8.5 10.3257 8.5 10.3257C8.5 10.3257 8.5 10.3256 8.5 10.3256C8.5 10.3256 8.5 10.3256 8.5 10.3256C8.5 10.3255 8.5 10.3255 8.5 10.3255C8.5 10.3255 8.5 10.3255 8.5 10.3254C8.5 10.3254 8.5 10.3254 8.5 10.3254C8.5 10.3253 8.5 10.3253 8.5 10.3253C8.5 10.3252 8.5 10.3252 8.5 10.3252C8.5 10.3251 8.5 10.3251 8.5 10.3251C8.5 10.3251 8.5 10.325 8.5 10.325C8.5 10.3249 8.5 10.3249 8.5 10.3249C8.5 10.3248 8.5 10.3248 8.5 10.3248C8.5 10.3247 8.5 10.3247 8.5 10.3246C8.5 10.3246 8.5 10.3246 8.5 10.3245C8.5 10.3245 8.5 10.3244 8.5 10.3244C8.5 10.3243 8.5 10.3243 8.5 10.3243C8.5 10.3242 8.5 10.3242 8.5 10.3241C8.5 10.3241 8.5 10.324 8.5 10.324C8.5 10.3239 8.5 10.3239 8.5 10.3238C8.5 10.3238 8.5 10.3237 8.5 10.3237C8.5 10.3236 8.5 10.3235 8.5 10.3235C8.5 10.3234 8.5 10.3234 8.5 10.3233C8.5 10.3233 8.5 10.3232 8.5 10.3231C8.5 10.3231 8.5 10.323 8.5 10.323C8.5 10.3229 8.5 10.3228 8.5 10.3228C8.5 10.3227 8.5 10.3227 8.5 10.3226C8.5 10.3225 8.5 10.3225 8.5 10.3224C8.5 10.3223 8.5 10.3223 8.5 10.3222C8.5 10.3221 8.5 10.3221 8.5 10.322C8.5 10.3219 8.5 10.3219 8.5 10.3218C8.5 10.3217 8.5 10.3217 8.5 10.3216C8.5 10.3215 8.5 10.3214 8.5 10.3214C8.5 10.3213 8.5 10.3212 8.5 10.3212C8.5 10.3211 8.5 10.321 8.5 10.3209C8.5 10.3209 8.5 10.3208 8.5 10.3207C8.5 10.3206 8.5 10.3205 8.5 10.3205C8.5 10.3204 8.5 10.3203 8.5 10.3202C8.5 10.3202 8.5 10.3201 8.5 10.32C8.5 10.3199 8.5 10.3198 8.5 10.3197C8.5 10.3197 8.5 10.3196 8.5 10.3195C8.5 10.3194 8.5 10.3193 8.5 10.3192C8.5 10.3192 8.5 10.3191 8.5 10.319C8.5 10.3189 8.5 10.3188 8.5 10.3187C8.5 10.3186 8.5 10.3186 8.5 10.3185C8.5 10.3184 8.5 10.3183 8.5 10.3182C8.5 10.3181 8.5 10.318 8.5 10.3179C8.5 10.3179 8.5 10.3178 8.5 10.3177C8.5 10.3176 8.5 10.3175 8.5 10.3174C8.5 10.3173 8.5 10.3172 8.5 10.3171C8.5 10.317 8.5 10.3169 8.5 10.3168C8.5 10.3167 8.5 10.3167 8.5 10.3166C8.5 10.3165 8.5 10.3164 8.5 10.3163C8.5 10.3162 8.5 10.3161 8.5 10.316C8.5 10.3159 8.5 10.3158 8.5 10.3157C8.5 10.3156 8.5 10.3155 8.5 10.3154C8.5 10.3153 8.5 10.3152 8.5 10.3151C8.5 10.315 8.5 10.3149 8.5 10.3148C8.5 10.3147 8.5 10.3146 8.5 10.3145C8.5 10.3144 8.5 10.3143 8.5 10.3142C8.5 10.3141 8.5 10.314 8.5 10.3139C8.5 10.3138 8.5 10.3137 8.5 10.3136C8.5 10.3135 8.5 10.3134 8.5 10.3133C8.5 10.3132 8.5 10.3131 8.5 10.313C8.5 10.3129 8.5 10.3128 8.5 10.3127C8.5 10.3126 8.5 10.3124 8.5 10.3123C8.5 10.3122 8.5 10.3121 8.5 10.312C8.5 10.3119 8.5 10.3118 8.5 10.3117C8.5 10.3116 8.5 10.3115 8.5 10.3114C8.5 10.3113 8.5 10.3112 8.5 10.3111C8.5 10.311 8.5 10.3109 8.5 10.3108C8.5 10.3106 8.5 10.3105 8.5 10.3104C8.5 10.3103 8.5 10.3102 8.5 10.3101C8.5 10.31 8.5 10.3099 8.5 10.3098C8.5 10.3097 8.5 10.3096 8.5 10.3095C8.5 10.3093 8.5 10.3092 8.5 10.3091C8.5 10.309 8.5 10.3089 8.5 10.3088C8.5 10.3087 8.5 10.3086 8.5 10.3085C8.5 10.3084 8.5 10.3083 8.5 10.3081C8.5 10.308 8.5 10.3079 8.5 10.3078C8.5 10.3077 8.5 10.3076 8.5 10.3075C8.5 10.3074 8.5 10.3073 8.5 10.3072C8.5 10.307 8.5 10.3069 8.5 10.3068C8.5 10.3067 8.5 10.3066 8.5 10.3065C8.5 10.3064 8.5 10.3063 8.5 10.3062C8.5 10.3061 8.5 10.3059 8.5 10.3058C8.5 10.3057 8.5 10.3056 8.5 10.3055C8.5 10.3054 8.5 10.3053 8.5 10.3052C8.5 10.3051 8.5 10.3049 8.5 10.3048C8.5 10.3047 8.5 10.3046 8.5 10.3045C8.5 10.3044 8.5 10.3043 8.5 10.3042C8.5 10.3041 8.5 10.304 8.5 10.3038C8.5 10.3037 8.5 10.3036 8.5 10.3035C8.5 10.3034 8.5 10.3033 8.5 10.3032C8.5 10.3031 8.5 10.303 8.5 10.3029C8.5 10.3027 8.5 10.3026 8.5 10.3025C8.5 10.3024 8.5 10.3023 8.5 10.3022C8.5 10.3021 8.5 10.302 8.5 10.3019C8.5 10.3018 8.5 10.3017 8.5 10.3016C8.5 10.3014 8.5 10.3013 8.5 10.3012C8.5 10.3011 8.5 10.301 8.5 10.3009C8.5 10.3008 8.5 10.3007 8.5 10.3006C8.5 10.3005 8.5 10.3004 8.5 10.3003C8.5 10.3002 8.5 10.3 8.5 10.2999C8.5 10.2998 8.5 10.2997 8.5 10.2996C8.5 10.2995 8.5 10.2994 8.5 10.2993C8.5 10.2992 8.5 10.2991 8.5 10.299C8.5 10.2989 8.5 10.2988 8.5 10.2987C8.5 10.2986 8.5 10.2985 8.5 10.2984C8.5 10.2983 8.5 10.2982 8.5 10.2981C8.5 10.298 8.5 10.2979 8.5 10.2978C8.5 10.2977 8.5 10.2975 8.5 10.2974C8.5 10.2973 8.5 10.2972 8.5 10.2971C8.5 10.297 8.5 10.2969 8.5 10.2968C8.5 10.2967 8.5 10.2966 8.5 10.2965C8.5 10.2964 8.5 10.2963 8.5 10.2962C8.5 10.2961 8.5 10.2961 8.5 10.296C8.5 10.2959 8.5 10.2958 8.5 10.2957C8.5 10.2956 8.5 10.2955 8.5 10.2954C8.5 10.2953 8.5 10.2952 8.5 10.2951C8.5 10.295 8.5 10.2949 8.5 10.2948C8.5 10.2947 8.5 10.2946 8.5 10.2945C8.5 10.2944 8.5 10.2943 8.5 10.2942C8.5 10.2941 8.5 10.2941 8.5 10.294C8.5 10.2939 8.5 10.2938 8.5 10.2937C8.5 10.2936 8.5 10.2935 8.5 10.2934C8.5 10.2933 8.5 10.2932 8.5 10.2932C8.5 10.2931 8.5 10.293 8.5 10.2929C8.5 10.2928 8.5 10.2927 8.5 10.2926C8.5 10.2926 8.5 10.2925 8.5 10.2924C8.5 10.2923 8.5 10.2922 8.5 10.2921C8.5 10.292 8.5 10.292 8.5 10.2919C8.5 10.2918 8.5 10.2917 8.5 10.2916C8.5 10.2916 8.5 10.2915 8.5 10.2914C8.5 10.2913 8.5 10.2912 8.5 10.2912C8.5 10.2911 8.5 10.291 8.5 10.2909C8.5 10.2908 8.5 10.2908 8.5 10.2907C8.5 10.2906 8.5 10.2905 8.5 10.2905C8.5 10.2904 8.5 10.2903 8.5 10.2902C8.5 10.2902 8.5 10.2901 8.5 10.29C8.5 10.29 8.5 10.2899 8.5 10.2898C8.5 10.2897 8.5 10.2897 8.5 10.2896C8.5 10.2895 8.5 10.2895 8.5 10.2894C8.5 10.2893 8.5 10.2893 8.5 10.2892C8.5 10.2891 8.5 10.2891 8.5 10.289C8.5 10.2889 8.5 10.2889 8.5 10.2888C8.5 10.2888 8.5 10.2887 8.5 10.2886C8.5 10.2886 8.5 10.2885 8.5 10.2885C8.5 10.2884 8.5 10.2883 8.5 10.2883C8.5 10.2882 8.5 10.2882 8.5 10.2881C8.5 10.2881 8.5 10.288 8.5 10.2879C8.5 10.2879 8.5 10.2878 8.5 10.2878C8.5 10.2877 8.5 10.2877 8.5 10.2876C8.5 10.2876 8.5 10.2875 8.5 10.2875C8.5 10.2874 8.5 10.2874 8.5 10.2873C8.5 10.2873 8.5 10.2872 8.5 10.2872C8.5 10.2872 8.5 10.2871 8.5 10.2871C8.5 10.287 8.5 10.287 8.5 10.2869C8.5 10.2869 8.5 10.2869 8.5 10.2868C8.5 10.2868 8.5 10.2867 8.5 10.2867C8.5 10.2867 8.5 10.2866 8.5 10.2866C8.5 10.2866 8.5 10.2865 8.5 10.2865C8.5 10.2865 8.5 10.2864 8.5 10.2864C8.5 10.2864 8.5 10.2863 8.5 10.2863C8.5 10.2863 8.5 10.2862 8.5 10.2862C8.5 10.2862 8.5 10.2862 8.5 10.2861C8.5 10.2861 8.5 10.2861 8.5 10.2861C8.5 10.286 8.5 10.286 8.5 10.286C8.5 10.286 8.5 10.286 8.5 10.2859C8.5 10.2859 8.5 10.2859 8.5 10.2859C8.5 10.2859 8.5 10.2859 8.5 10.2858C8.5 10.2858 8.5 10.2858 8.5 10.2858C8.5 10.2858 8.5 10.2858 8.5 10.2858C8.5 10.2858 8.5 10.2858 8.5 10.2857C8.5 10.2857 8.5 10.2857 8.5 10.2857C8.5 10.2857 8.5 10.2857 8.5 10.2857C8.5 10.2857 8.5 10.2857 8 10.2857ZM10.5 6.16216C10.5 4.64569 9.40607 3.5 8 3.5V4.5C8.80305 4.5 9.5 5.14583 9.5 6.16216H10.5ZM8 3.5C6.58331 3.5 5.5 4.72931 5.5 6.16216H6.5C6.5 5.20676 7.20757 4.5 8 4.5V3.5ZM9.5 6.16216C9.5 6.34185 9.43006 6.53506 9.27365 6.76577C9.11429 7.00082 8.89497 7.23287 8.64042 7.49634C8.3992 7.746 8.11917 8.03076 7.90528 8.33098C7.68926 8.63419 7.5 9.00729 7.5 9.44507H8.5C8.5 9.30317 8.56074 9.13437 8.71972 8.91122C8.88083 8.68508 9.1008 8.45903 9.35958 8.19118C9.60503 7.93714 9.88571 7.645 10.1014 7.32693C10.3199 7.00452 10.5 6.61568 10.5 6.16216H9.5ZM7.5 11.7143V12H8.5V11.7143H7.5Z" fill="#8A8C9B"/>
</svg>
