<svg width="16" height="16" viewBox="0 0 16 16" fill="none" xmlns="http://www.w3.org/2000/svg">
<path fill-rule="evenodd" clip-rule="evenodd" d="M10.269 4.59998C10.269 2.94312 8.9259 1.59998 7.26904 1.59998H4.49984C2.84299 1.59998 1.49984 2.94312 1.49984 4.59998V11.6C1.49984 13.2568 2.84299 14.6 4.49984 14.6H7.26904C8.92589 14.6 10.269 13.2568 10.269 11.6V4.59998Z" stroke="#8A8C9B" stroke-linecap="round"/>
<path d="M14.5 8.01332H5.7308" stroke="#8A8C9B" stroke-linecap="round"/>
<path d="M13.8835 10.1255C13.7479 10.3661 13.443 10.4512 13.2024 10.3156C12.9619 10.18 12.8768 9.87509 13.0124 9.63453L13.8835 10.1255ZM14.5 8.01336L14.9356 7.76786C15.0215 7.92026 15.0215 8.10646 14.9356 8.25886L14.5 8.01336ZM13.0124 6.39219C12.8768 6.15162 12.9619 5.84669 13.2024 5.71111C13.443 5.57553 13.7479 5.66063 13.8835 5.9012L13.0124 6.39219ZM13.0124 9.63453L14.0644 7.76786L14.9356 8.25886L13.8835 10.1255L13.0124 9.63453ZM14.0644 8.25886L13.0124 6.39219L13.8835 5.9012L14.9356 7.76786L14.0644 8.25886Z" fill="#8A8C9B"/>
</svg>
