<svg width="24" height="24" viewBox="0 0 24 24" fill="none" xmlns="http://www.w3.org/2000/svg">
<path d="M5.70399 21.2185C6.30782 20.7023 7.1746 20.4783 8.19721 20.4783H9.28799L10.5443 18.7447" stroke="black" stroke-miterlimit="10" stroke-linecap="round" stroke-linejoin="round"/>
<path d="M18.7934 21.2964C18.1993 20.7315 17.313 20.4783 16.2515 20.4783H15.1607L13.8751 18.7447" stroke="black" stroke-miterlimit="10" stroke-linecap="round" stroke-linejoin="round"/>
<path d="M12.2 18.9882C14.2063 18.9882 16.0372 16.3391 16.0372 14.0699C17.313 13.0181 16.193 9.15166 16.193 9.15166C16.9527 7.1454 14.8198 4.62297 11.4793 6.6974C8.57704 6.6974 8.2167 7.79792 8.2167 9.15166C8.2167 9.15166 7.24278 11.4891 8.37252 14.0699C8.36278 16.3294 10.1937 18.9882 12.2 18.9882Z" stroke="black" stroke-miterlimit="10" stroke-linecap="round" stroke-linejoin="round"/>
<path d="M12.2 23.4C18.3856 23.4 23.4 18.3856 23.4 12.2C23.4 6.01441 18.3856 1 12.2 1C6.01441 1 1 6.01441 1 12.2C1 18.3856 6.01441 23.4 12.2 23.4Z" stroke="black" stroke-miterlimit="10" stroke-linecap="round" stroke-linejoin="round"/>
</svg>
