<svg width="16" height="16" viewBox="0 0 16 16" fill="none" xmlns="http://www.w3.org/2000/svg">
<path d="M14.5 8C14.5 8.26124 14.3722 8.61192 14.0561 9.01585C13.7451 9.41339 13.2799 9.82483 12.6845 10.1975C11.4939 10.9427 9.83534 11.5 8 11.5C6.16466 11.5 4.50607 10.9427 3.31553 10.1975C2.72014 9.82483 2.25495 9.41339 1.94386 9.01585C1.62778 8.61192 1.5 8.26124 1.5 8C1.5 7.73876 1.62778 7.38808 1.94386 6.98415C2.25495 6.58661 2.72014 6.17517 3.31553 5.8025C4.50607 5.05731 6.16466 4.5 8 4.5C9.83534 4.5 11.4939 5.05731 12.6845 5.8025C13.2799 6.17517 13.7451 6.58661 14.0561 6.98415C14.3722 7.38808 14.5 7.73876 14.5 8Z" stroke="black"/>
<circle cx="8" cy="8" r="3" fill="black"/>
</svg>
